<svg width="237" height="18" viewBox="0 0 237 18" fill="none" xmlns="http://www.w3.org/2000/svg">
<path d="M14.0326 6.1575C13.9629 6.08721 13.8799 6.03141 13.7885 5.99333C13.6971 5.95526 13.5991 5.93565 13.5001 5.93565C13.4011 5.93565 13.3031 5.95526 13.2117 5.99333C13.1203 6.03141 13.0373 6.08721 12.9676 6.1575L9.53261 9.5925C9.46288 9.66279 9.37993 9.71859 9.28854 9.75666C9.19714 9.79474 9.09912 9.81434 9.00011 9.81434C8.9011 9.81434 8.80307 9.79474 8.71167 9.75666C8.62028 9.71859 8.53733 9.66279 8.46761 9.5925L5.03261 6.1575C4.96288 6.08721 4.87993 6.03141 4.78854 5.99333C4.69714 5.95526 4.59912 5.93565 4.50011 5.93565C4.4011 5.93565 4.30307 5.95526 4.21167 5.99333C4.12028 6.03141 4.03733 6.08721 3.96761 6.1575C3.82792 6.29802 3.74951 6.48811 3.74951 6.68625C3.74951 6.88439 3.82792 7.07448 3.96761 7.215L7.41011 10.6575C7.83198 11.0788 8.40385 11.3155 9.00011 11.3155C9.59636 11.3155 10.1682 11.0788 10.5901 10.6575L14.0326 7.215C14.1723 7.07448 14.2507 6.88439 14.2507 6.68625C14.2507 6.48811 14.1723 6.29802 14.0326 6.1575Z" fill="white"/>
<path d="M30.1186 14V3.81818H36.5021V5.14062H31.6548V8.2429H36.169V9.56037H31.6548V12.6776H36.5618V14H30.1186ZM39.9213 9.46591V14H38.4348V6.36364H39.8617V7.60653H39.9561C40.1318 7.20218 40.4069 6.87737 40.7814 6.6321C41.1593 6.38684 41.6349 6.2642 42.2083 6.2642C42.7286 6.2642 43.1844 6.37358 43.5755 6.59233C43.9666 6.80777 44.2698 7.12926 44.4853 7.55682C44.7007 7.98437 44.8084 8.51302 44.8084 9.14276V14H43.3219V9.32173C43.3219 8.76823 43.1777 8.3357 42.8894 8.02415C42.601 7.70928 42.205 7.55185 41.7012 7.55185C41.3565 7.55185 41.0499 7.62642 40.7814 7.77557C40.5163 7.92472 40.3058 8.14347 40.15 8.43182C39.9976 8.71686 39.9213 9.06155 39.9213 9.46591ZM50.0037 17.0227C49.3972 17.0227 48.8752 16.9432 48.4377 16.7841C48.0035 16.625 47.6489 16.4145 47.3738 16.1527C47.0987 15.8909 46.8932 15.6042 46.7573 15.2926L48.035 14.7656C48.1245 14.9115 48.2438 15.0656 48.3929 15.228C48.5454 15.3937 48.7509 15.5346 49.0094 15.6506C49.2712 15.7666 49.6077 15.8246 50.0186 15.8246C50.5821 15.8246 51.0478 15.687 51.4157 15.4119C51.7836 15.1402 51.9675 14.706 51.9675 14.1094V12.608H51.873C51.7836 12.7704 51.6543 12.951 51.4853 13.1499C51.3195 13.3487 51.0909 13.5211 50.7992 13.6669C50.5075 13.8127 50.128 13.8857 49.6607 13.8857C49.0575 13.8857 48.5139 13.7448 48.03 13.4631C47.5494 13.178 47.1683 12.7588 46.8865 12.2053C46.6081 11.6484 46.4689 10.964 46.4689 10.152C46.4689 9.33996 46.6065 8.64394 46.8816 8.06392C47.16 7.4839 47.5411 7.03977 48.025 6.73153C48.5089 6.41998 49.0575 6.2642 49.6706 6.2642C50.1446 6.2642 50.5274 6.34375 50.8191 6.50284C51.1107 6.65862 51.3378 6.84091 51.5002 7.04972C51.6659 7.25852 51.7935 7.44247 51.883 7.60156H51.9924V6.36364H53.449V14.169C53.449 14.8253 53.2966 15.3639 52.9917 15.7848C52.6867 16.2057 52.2741 16.5173 51.7537 16.7195C51.2367 16.9216 50.6534 17.0227 50.0037 17.0227ZM49.9888 12.6527C50.4164 12.6527 50.7776 12.5533 51.0726 12.3544C51.3709 12.1522 51.5963 11.8639 51.7488 11.4893C51.9045 11.1115 51.9824 10.6591 51.9824 10.1321C51.9824 9.61837 51.9062 9.16596 51.7537 8.77486C51.6013 8.38376 51.3775 8.07884 51.0826 7.86009C50.7876 7.63802 50.423 7.52699 49.9888 7.52699C49.5414 7.52699 49.1685 7.64299 48.8702 7.875C48.5719 8.10369 48.3465 8.41525 48.1941 8.80966C48.0449 9.20407 47.9703 9.64489 47.9703 10.1321C47.9703 10.6326 48.0466 11.0717 48.199 11.4496C48.3515 11.8274 48.5769 12.1224 48.8752 12.3345C49.1768 12.5466 49.548 12.6527 49.9888 12.6527ZM56.9292 3.81818V14H55.4426V3.81818H56.9292ZM58.929 14V6.36364H60.4155V14H58.929ZM59.6797 5.18537C59.4212 5.18537 59.1991 5.09919 59.0135 4.92685C58.8312 4.75118 58.7401 4.54238 58.7401 4.30043C58.7401 4.05516 58.8312 3.84635 59.0135 3.67401C59.1991 3.49834 59.4212 3.41051 59.6797 3.41051C59.9382 3.41051 60.1586 3.49834 60.3409 3.67401C60.5265 3.84635 60.6193 4.05516 60.6193 4.30043C60.6193 4.54238 60.5265 4.75118 60.3409 4.92685C60.1586 5.09919 59.9382 5.18537 59.6797 5.18537ZM68.1376 8.22798L66.7903 8.46662C66.734 8.29427 66.6445 8.13021 66.5218 7.97443C66.4025 7.81865 66.2401 7.69105 66.0346 7.59162C65.8291 7.49219 65.5723 7.44247 65.264 7.44247C64.8431 7.44247 64.4918 7.53693 64.21 7.72585C63.9283 7.91146 63.7875 8.15175 63.7875 8.44673C63.7875 8.70194 63.8819 8.90743 64.0708 9.06321C64.2598 9.21899 64.5647 9.34659 64.9856 9.44602L66.1987 9.72443C66.9013 9.88684 67.425 10.1371 67.7697 10.4751C68.1144 10.8132 68.2868 11.2524 68.2868 11.7926C68.2868 12.25 68.1542 12.6577 67.889 13.0156C67.6272 13.3703 67.2609 13.6487 66.7903 13.8509C66.323 14.053 65.7811 14.1541 65.1646 14.1541C64.3095 14.1541 63.6118 13.9718 63.0716 13.6072C62.5313 13.2393 62.1999 12.7173 62.0772 12.0412L63.514 11.8224C63.6035 12.197 63.7875 12.4804 64.0659 12.6726C64.3443 12.8615 64.7072 12.956 65.1547 12.956C65.6419 12.956 66.0313 12.8549 66.323 12.6527C66.6146 12.4472 66.7605 12.197 66.7605 11.902C66.7605 11.6634 66.671 11.4628 66.492 11.3004C66.3163 11.138 66.0462 11.0154 65.6816 10.9325L64.389 10.6491C63.6764 10.4867 63.1494 10.2282 62.8081 9.87358C62.47 9.51894 62.301 9.06984 62.301 8.52628C62.301 8.07552 62.4269 7.68111 62.6788 7.34304C62.9307 7.00497 63.2787 6.74148 63.7228 6.55256C64.167 6.36032 64.6757 6.2642 65.2491 6.2642C66.0744 6.2642 66.724 6.44318 67.198 6.80114C67.6719 7.15578 67.9851 7.63139 68.1376 8.22798ZM71.4077 9.46591V14H69.9212V3.81818H71.3878V7.60653H71.4822C71.6612 7.19555 71.9347 6.86908 72.3026 6.62713C72.6705 6.38518 73.151 6.2642 73.7443 6.2642C74.268 6.2642 74.7254 6.37192 75.1165 6.58736C75.5109 6.80279 75.8158 7.12429 76.0312 7.55185C76.25 7.97609 76.3594 8.50639 76.3594 9.14276V14H74.8729V9.32173C74.8729 8.7616 74.7287 8.32741 74.4403 8.01918C74.152 7.70762 73.7509 7.55185 73.2372 7.55185C72.8859 7.55185 72.571 7.62642 72.2926 7.77557C72.0175 7.92472 71.8004 8.14347 71.6413 8.43182C71.4856 8.71686 71.4077 9.06155 71.4077 9.46591Z" fill="white"/>
<path fill-rule="evenodd" clip-rule="evenodd" d="M89 0H110.087V15.062H89V0Z" fill="url(#paint0_linear_5408_1010)"/>
<path fill-rule="evenodd" clip-rule="evenodd" d="M89 0H110.087V1.00413H89V0ZM89 2.00827H110.087V3.0124H89V2.00827ZM89 4.01654H110.087V5.02067H89V4.01654ZM89 6.0248H110.087V7.02894H89V6.0248ZM89 8.03307H110.087V9.03721H89V8.03307ZM89 10.0413H110.087V11.0455H89V10.0413ZM89 12.0496H110.087V13.0537H89V12.0496ZM89 14.0579H110.087V15.062H89V14.0579Z" fill="url(#paint1_linear_5408_1010)"/>
<path fill-rule="evenodd" clip-rule="evenodd" d="M89 0H98.0372V7.02894H89V0Z" fill="url(#paint2_linear_5408_1010)"/>
<path fill-rule="evenodd" clip-rule="evenodd" d="M90.5065 2.0083C90.2292 2.0083 90.0044 1.78352 90.0044 1.50623C90.0044 1.22895 90.2292 1.00417 90.5065 1.00417C90.7837 1.00417 91.0085 1.22895 91.0085 1.50623C91.0085 1.78352 90.7837 2.0083 90.5065 2.0083ZM92.5147 2.0083C92.2374 2.0083 92.0127 1.78352 92.0127 1.50623C92.0127 1.22895 92.2374 1.00417 92.5147 1.00417C92.792 1.00417 93.0168 1.22895 93.0168 1.50623C93.0168 1.78352 92.792 2.0083 92.5147 2.0083ZM94.523 2.0083C94.2457 2.0083 94.0209 1.78352 94.0209 1.50623C94.0209 1.22895 94.2457 1.00417 94.523 1.00417C94.8003 1.00417 95.0251 1.22895 95.0251 1.50623C95.0251 1.78352 94.8003 2.0083 94.523 2.0083ZM96.5313 2.0083C96.254 2.0083 96.0292 1.78352 96.0292 1.50623C96.0292 1.22895 96.254 1.00417 96.5313 1.00417C96.8085 1.00417 97.0333 1.22895 97.0333 1.50623C97.0333 1.78352 96.8085 2.0083 96.5313 2.0083ZM91.5106 3.01243C91.2333 3.01243 91.0085 2.78765 91.0085 2.51037C91.0085 2.23308 91.2333 2.0083 91.5106 2.0083C91.7879 2.0083 92.0127 2.23308 92.0127 2.51037C92.0127 2.78765 91.7879 3.01243 91.5106 3.01243ZM93.5189 3.01243C93.2416 3.01243 93.0168 2.78765 93.0168 2.51037C93.0168 2.23308 93.2416 2.0083 93.5189 2.0083C93.7961 2.0083 94.0209 2.23308 94.0209 2.51037C94.0209 2.78765 93.7961 3.01243 93.5189 3.01243ZM95.5271 3.01243C95.2498 3.01243 95.0251 2.78765 95.0251 2.51037C95.0251 2.23308 95.2498 2.0083 95.5271 2.0083C95.8044 2.0083 96.0292 2.23308 96.0292 2.51037C96.0292 2.78765 95.8044 3.01243 95.5271 3.01243ZM96.5313 4.01657C96.254 4.01657 96.0292 3.79178 96.0292 3.5145C96.0292 3.23722 96.254 3.01243 96.5313 3.01243C96.8085 3.01243 97.0333 3.23722 97.0333 3.5145C97.0333 3.79178 96.8085 4.01657 96.5313 4.01657ZM94.523 4.01657C94.2457 4.01657 94.0209 3.79178 94.0209 3.5145C94.0209 3.23722 94.2457 3.01243 94.523 3.01243C94.8003 3.01243 95.0251 3.23722 95.0251 3.5145C95.0251 3.79178 94.8003 4.01657 94.523 4.01657ZM92.5147 4.01657C92.2374 4.01657 92.0127 3.79178 92.0127 3.5145C92.0127 3.23722 92.2374 3.01243 92.5147 3.01243C92.792 3.01243 93.0168 3.23722 93.0168 3.5145C93.0168 3.79178 92.792 4.01657 92.5147 4.01657ZM90.5065 4.01657C90.2292 4.01657 90.0044 3.79178 90.0044 3.5145C90.0044 3.23722 90.2292 3.01243 90.5065 3.01243C90.7837 3.01243 91.0085 3.23722 91.0085 3.5145C91.0085 3.79178 90.7837 4.01657 90.5065 4.01657ZM91.5106 5.0207C91.2333 5.0207 91.0085 4.79592 91.0085 4.51863C91.0085 4.24135 91.2333 4.01657 91.5106 4.01657C91.7879 4.01657 92.0127 4.24135 92.0127 4.51863C92.0127 4.79592 91.7879 5.0207 91.5106 5.0207ZM93.5189 5.0207C93.2416 5.0207 93.0168 4.79592 93.0168 4.51863C93.0168 4.24135 93.2416 4.01657 93.5189 4.01657C93.7961 4.01657 94.0209 4.24135 94.0209 4.51863C94.0209 4.79592 93.7961 5.0207 93.5189 5.0207ZM95.5271 5.0207C95.2498 5.0207 95.0251 4.79592 95.0251 4.51863C95.0251 4.24135 95.2498 4.01657 95.5271 4.01657C95.8044 4.01657 96.0292 4.24135 96.0292 4.51863C96.0292 4.79592 95.8044 5.0207 95.5271 5.0207ZM96.5313 6.02484C96.254 6.02484 96.0292 5.80005 96.0292 5.52277C96.0292 5.24548 96.254 5.0207 96.5313 5.0207C96.8085 5.0207 97.0333 5.24548 97.0333 5.52277C97.0333 5.80005 96.8085 6.02484 96.5313 6.02484ZM94.523 6.02484C94.2457 6.02484 94.0209 5.80005 94.0209 5.52277C94.0209 5.24548 94.2457 5.0207 94.523 5.0207C94.8003 5.0207 95.0251 5.24548 95.0251 5.52277C95.0251 5.80005 94.8003 6.02484 94.523 6.02484ZM92.5147 6.02484C92.2374 6.02484 92.0127 5.80005 92.0127 5.52277C92.0127 5.24548 92.2374 5.0207 92.5147 5.0207C92.792 5.0207 93.0168 5.24548 93.0168 5.52277C93.0168 5.80005 92.792 6.02484 92.5147 6.02484ZM90.5065 6.02484C90.2292 6.02484 90.0044 5.80005 90.0044 5.52277C90.0044 5.24548 90.2292 5.0207 90.5065 5.0207C90.7837 5.0207 91.0085 5.24548 91.0085 5.52277C91.0085 5.80005 90.7837 6.02484 90.5065 6.02484Z" fill="url(#paint3_linear_5408_1010)"/>
<path d="M162.587 0.5C160.906 0.5 159.262 0.998516 157.865 1.93251C156.467 2.8665 155.377 4.19402 154.734 5.74719C154.091 7.30036 153.922 9.00943 154.25 10.6583C154.578 12.3071 155.388 13.8217 156.577 15.0104C157.765 16.1992 159.28 17.0087 160.929 17.3367C162.577 17.6646 164.287 17.4963 165.84 16.853C167.393 16.2096 168.72 15.1202 169.654 13.7223C170.588 12.3245 171.087 10.6811 171.087 9C171.084 6.74641 170.188 4.58582 168.595 2.99228C167.001 1.39875 164.841 0.502437 162.587 0.5V0.5ZM168.92 8.29167H166.457C166.296 6.44638 165.743 4.65667 164.835 3.04221C165.933 3.45729 166.895 4.16684 167.615 5.09291C168.336 6.01899 168.787 7.12576 168.92 8.29167ZM160.947 10.4167H164.227C163.948 11.9005 163.391 13.3183 162.587 14.5958C161.782 13.3184 161.226 11.9005 160.947 10.4167ZM160.854 8.29167C161.052 6.55184 161.645 4.88024 162.587 3.40417C163.529 4.88018 164.122 6.55182 164.32 8.29167H160.854ZM160.339 3.04221C159.431 4.65667 158.878 6.44638 158.717 8.29167H156.254C156.386 7.12576 156.838 6.01899 157.559 5.09291C158.279 4.16684 159.241 3.45729 160.339 3.04221ZM156.376 10.4167H158.791C159.029 12.0112 159.554 13.5496 160.339 14.9578C159.356 14.5852 158.48 13.9759 157.788 13.1837C157.097 12.3916 156.612 11.4411 156.376 10.4167ZM164.835 14.9578C165.621 13.5497 166.145 12.0113 166.383 10.4167H168.798C168.562 11.4411 168.077 12.3916 167.385 13.1837C166.694 13.9759 165.818 14.5852 164.835 14.9578Z" fill="white"/>
<path d="M180.206 14.5V4.31818H181.742V13.1776H186.355V14.5H180.206ZM191.205 14.6541C190.489 14.6541 189.864 14.4901 189.331 14.1619C188.797 13.8338 188.383 13.3748 188.088 12.7848C187.793 12.1948 187.646 11.5054 187.646 10.7166C187.646 9.92448 187.793 9.23177 188.088 8.63849C188.383 8.04522 188.797 7.58452 189.331 7.25639C189.864 6.92827 190.489 6.7642 191.205 6.7642C191.921 6.7642 192.546 6.92827 193.079 7.25639C193.613 7.58452 194.027 8.04522 194.322 8.63849C194.617 9.23177 194.765 9.92448 194.765 10.7166C194.765 11.5054 194.617 12.1948 194.322 12.7848C194.027 13.3748 193.613 13.8338 193.079 14.1619C192.546 14.4901 191.921 14.6541 191.205 14.6541ZM191.21 13.4062C191.674 13.4062 192.059 13.2836 192.364 13.0384C192.668 12.7931 192.894 12.4666 193.04 12.0589C193.189 11.6513 193.263 11.2022 193.263 10.7116C193.263 10.2244 193.189 9.77699 193.04 9.36932C192.894 8.95833 192.668 8.62855 192.364 8.37997C192.059 8.13139 191.674 8.0071 191.21 8.0071C190.743 8.0071 190.355 8.13139 190.047 8.37997C189.742 8.62855 189.515 8.95833 189.366 9.36932C189.22 9.77699 189.147 10.2244 189.147 10.7116C189.147 11.2022 189.22 11.6513 189.366 12.0589C189.515 12.4666 189.742 12.7931 190.047 13.0384C190.355 13.2836 190.743 13.4062 191.21 13.4062ZM199.641 14.6541C198.902 14.6541 198.265 14.4867 197.732 14.152C197.201 13.8139 196.794 13.3482 196.509 12.755C196.224 12.1617 196.081 11.4822 196.081 10.7166C196.081 9.94105 196.227 9.25663 196.519 8.66335C196.81 8.06676 197.221 7.60109 197.752 7.26633C198.282 6.93158 198.907 6.7642 199.626 6.7642C200.206 6.7642 200.723 6.87192 201.177 7.08736C201.631 7.29948 201.997 7.59777 202.276 7.98224C202.557 8.36671 202.725 8.81581 202.778 9.32955H201.331C201.252 8.97159 201.069 8.66335 200.784 8.40483C200.502 8.14631 200.125 8.01705 199.651 8.01705C199.236 8.01705 198.873 8.12642 198.562 8.34517C198.254 8.56061 198.013 8.86884 197.841 9.26989C197.669 9.66761 197.582 10.1383 197.582 10.6818C197.582 11.2386 197.667 11.7192 197.836 12.1236C198.005 12.5279 198.244 12.8411 198.552 13.0632C198.863 13.2853 199.23 13.3963 199.651 13.3963C199.932 13.3963 200.188 13.3449 200.416 13.2422C200.648 13.1361 200.842 12.9853 200.998 12.7898C201.157 12.5942 201.268 12.3589 201.331 12.0838H202.778C202.725 12.5777 202.564 13.0185 202.296 13.4062C202.027 13.794 201.667 14.099 201.217 14.321C200.769 14.5431 200.244 14.6541 199.641 14.6541ZM206.59 14.669C206.106 14.669 205.668 14.5795 205.277 14.4006C204.886 14.2183 204.576 13.9548 204.348 13.6101C204.122 13.2654 204.009 12.8428 204.009 12.3423C204.009 11.9115 204.092 11.5568 204.258 11.2784C204.424 11 204.648 10.7796 204.929 10.6172C205.211 10.4548 205.526 10.3321 205.874 10.2493C206.222 10.1664 206.576 10.1035 206.938 10.0604C207.395 10.0073 207.766 9.96425 208.051 9.93111C208.336 9.89465 208.544 9.83665 208.673 9.7571C208.802 9.67756 208.867 9.5483 208.867 9.36932V9.33452C208.867 8.90033 208.744 8.56392 208.499 8.32528C208.257 8.08665 207.896 7.96733 207.415 7.96733C206.915 7.96733 206.52 8.07836 206.232 8.30043C205.947 8.51918 205.75 8.76278 205.64 9.03125L204.243 8.71307C204.409 8.24905 204.651 7.87453 204.969 7.58949C205.291 7.30114 205.66 7.09233 206.078 6.96307C206.495 6.83049 206.934 6.7642 207.395 6.7642C207.7 6.7642 208.023 6.80066 208.365 6.87358C208.709 6.94318 209.031 7.07244 209.329 7.26136C209.631 7.45028 209.878 7.72041 210.07 8.07173C210.262 8.41974 210.358 8.87216 210.358 9.42898V14.5H208.907V13.456H208.847C208.751 13.6482 208.607 13.8371 208.414 14.0227C208.222 14.2083 207.975 14.3625 207.674 14.4851C207.372 14.6077 207.011 14.669 206.59 14.669ZM206.913 13.4759C207.324 13.4759 207.675 13.3946 207.967 13.2322C208.262 13.0698 208.486 12.8577 208.638 12.5959C208.794 12.3307 208.872 12.0473 208.872 11.7457V10.7614C208.819 10.8144 208.716 10.8641 208.563 10.9105C208.414 10.9536 208.244 10.9917 208.051 11.0249C207.859 11.0547 207.672 11.0829 207.49 11.1094C207.307 11.1326 207.155 11.1525 207.032 11.169C206.744 11.2055 206.48 11.2668 206.242 11.353C206.006 11.4392 205.818 11.5634 205.675 11.7259C205.536 11.8849 205.466 12.0971 205.466 12.3622C205.466 12.7301 205.602 13.0085 205.874 13.1974C206.146 13.383 206.492 13.4759 206.913 13.4759ZM215.903 6.86364V8.05682H211.732V6.86364H215.903ZM212.85 5.03409H214.337V12.2578C214.337 12.5462 214.38 12.7633 214.466 12.9091C214.552 13.0516 214.663 13.1494 214.799 13.2024C214.938 13.2521 215.089 13.277 215.252 13.277C215.371 13.277 215.475 13.2687 215.565 13.2521C215.654 13.2356 215.724 13.2223 215.774 13.2124L216.042 14.4403C215.956 14.4735 215.833 14.5066 215.674 14.5398C215.515 14.5762 215.316 14.5961 215.078 14.5994C214.686 14.6061 214.322 14.5365 213.984 14.3906C213.646 14.2448 213.372 14.0194 213.163 13.7145C212.955 13.4096 212.85 13.0268 212.85 12.5661V5.03409ZM217.547 14.5V6.86364H219.034V14.5H217.547ZM218.298 5.68537C218.039 5.68537 217.817 5.59919 217.632 5.42685C217.449 5.25118 217.358 5.04238 217.358 4.80043C217.358 4.55516 217.449 4.34635 217.632 4.17401C217.817 3.99834 218.039 3.91051 218.298 3.91051C218.556 3.91051 218.777 3.99834 218.959 4.17401C219.145 4.34635 219.237 4.55516 219.237 4.80043C219.237 5.04238 219.145 5.25118 218.959 5.42685C218.777 5.59919 218.556 5.68537 218.298 5.68537ZM224.25 14.6541C223.534 14.6541 222.909 14.4901 222.376 14.1619C221.842 13.8338 221.428 13.3748 221.133 12.7848C220.838 12.1948 220.69 11.5054 220.69 10.7166C220.69 9.92448 220.838 9.23177 221.133 8.63849C221.428 8.04522 221.842 7.58452 222.376 7.25639C222.909 6.92827 223.534 6.7642 224.25 6.7642C224.966 6.7642 225.591 6.92827 226.124 7.25639C226.658 7.58452 227.072 8.04522 227.367 8.63849C227.662 9.23177 227.81 9.92448 227.81 10.7166C227.81 11.5054 227.662 12.1948 227.367 12.7848C227.072 13.3748 226.658 13.8338 226.124 14.1619C225.591 14.4901 224.966 14.6541 224.25 14.6541ZM224.255 13.4062C224.719 13.4062 225.104 13.2836 225.408 13.0384C225.713 12.7931 225.939 12.4666 226.085 12.0589C226.234 11.6513 226.308 11.2022 226.308 10.7116C226.308 10.2244 226.234 9.77699 226.085 9.36932C225.939 8.95833 225.713 8.62855 225.408 8.37997C225.104 8.13139 224.719 8.0071 224.255 8.0071C223.788 8.0071 223.4 8.13139 223.092 8.37997C222.787 8.62855 222.56 8.95833 222.411 9.36932C222.265 9.77699 222.192 10.2244 222.192 10.7116C222.192 11.2022 222.265 11.6513 222.411 12.0589C222.56 12.4666 222.787 12.7931 223.092 13.0384C223.4 13.2836 223.788 13.4062 224.255 13.4062ZM230.956 9.96591V14.5H229.469V6.86364H230.896V8.10653H230.99C231.166 7.70218 231.441 7.37737 231.816 7.1321C232.193 6.88684 232.669 6.7642 233.242 6.7642C233.763 6.7642 234.219 6.87358 234.61 7.09233C235.001 7.30777 235.304 7.62926 235.519 8.05682C235.735 8.48437 235.843 9.01302 235.843 9.64276V14.5H234.356V9.82173C234.356 9.26823 234.212 8.8357 233.924 8.52415C233.635 8.20928 233.239 8.05185 232.735 8.05185C232.391 8.05185 232.084 8.12642 231.816 8.27557C231.55 8.42472 231.34 8.64347 231.184 8.93182C231.032 9.21686 230.956 9.56155 230.956 9.96591Z" fill="white"/>
<defs>
<linearGradient id="paint0_linear_5408_1010" x1="310.412" y1="0" x2="310.412" y2="225.93" gradientUnits="userSpaceOnUse">
<stop stop-color="white"/>
<stop offset="1" stop-color="#F0F0F0"/>
</linearGradient>
<linearGradient id="paint1_linear_5408_1010" x1="310.412" y1="0" x2="310.412" y2="225.93" gradientUnits="userSpaceOnUse">
<stop stop-color="#D02F44"/>
<stop offset="1" stop-color="#B12537"/>
</linearGradient>
<linearGradient id="paint2_linear_5408_1010" x1="183.891" y1="0" x2="183.891" y2="105.434" gradientUnits="userSpaceOnUse">
<stop stop-color="#46467F"/>
<stop offset="1" stop-color="#3C3C6D"/>
</linearGradient>
<linearGradient id="paint3_linear_5408_1010" x1="163.808" y1="1.00417" x2="163.808" y2="76.3142" gradientUnits="userSpaceOnUse">
<stop stop-color="white"/>
<stop offset="1" stop-color="#F0F0F0"/>
</linearGradient>
</defs>
</svg>
