<svg width="120" height="20" viewBox="0 0 120 20" fill="none" xmlns="http://www.w3.org/2000/svg">
<g clip-path="url(#clip0_736_3986)">
<path d="M16.2267 19.4293L10.0042 14.856L3.78166 19.4293L6.17083 12.0435L-0.0483398 7.49932H7.62999L10.0042 0.100983L12.3783 7.49932H20.0558L13.8375 12.0435L16.2267 19.4293ZM10.0042 12.7876L13.0525 15.0285L11.8858 11.4085L14.9517 9.16598H11.1625L10.0042 5.55682L8.84583 9.16598H5.05583L8.12499 11.4085L6.95833 15.0285L10.0042 12.7876Z" fill="#FFC700"/>
</g>
<g clip-path="url(#clip1_736_3986)">
<path d="M41.2267 19.4293L35.0042 14.856L28.7817 19.4293L31.1708 12.0435L24.9517 7.49932H32.63L35.0042 0.100983L37.3783 7.49932H45.0558L38.8375 12.0435L41.2267 19.4293ZM35.0042 12.7876L38.0525 15.0285L36.8858 11.4085L39.9517 9.16598H36.1625L35.0042 5.55682L33.8458 9.16598H30.0558L33.125 11.4085L31.9583 15.0285L35.0042 12.7876Z" fill="#FFC700"/>
</g>
<g clip-path="url(#clip2_736_3986)">
<path d="M66.2267 19.4293L60.0042 14.856L53.7817 19.4293L56.1708 12.0435L49.9517 7.49932H57.63L60.0042 0.100983L62.3783 7.49932H70.0558L63.8375 12.0435L66.2267 19.4293ZM60.0042 12.7876L63.0525 15.0285L61.8858 11.4085L64.9517 9.16598H61.1625L60.0042 5.55682L58.8458 9.16598H55.0558L58.125 11.4085L56.9583 15.0285L60.0042 12.7876Z" fill="#FFC700"/>
</g>
<g clip-path="url(#clip3_736_3986)">
<path d="M91.2267 19.4293L85.0042 14.856L78.7817 19.4293L81.1708 12.0435L74.9517 7.49932H82.63L85.0042 0.100983L87.3783 7.49932H95.0558L88.8375 12.0435L91.2267 19.4293ZM85.0042 12.7876L88.0525 15.0285L86.8858 11.4085L89.9517 9.16598H86.1625L85.0042 5.55682L83.8458 9.16598H80.0558L83.125 11.4085L81.9583 15.0285L85.0042 12.7876Z" fill="#FFC700"/>
</g>
<g clip-path="url(#clip4_736_3986)">
<path d="M116.227 19.4293L110.004 14.856L103.782 19.4293L106.171 12.0435L99.9517 7.49932H107.63L110.004 0.100983L112.378 7.49932H120.056L113.837 12.0435L116.227 19.4293ZM110.004 12.7876L113.052 15.0285L111.886 11.4085L114.952 9.16598H111.162L110.004 5.55682L108.846 9.16598H105.056L108.125 11.4085L106.958 15.0285L110.004 12.7876Z" fill="#FFC700"/>
</g>
<defs>
<clipPath id="clip0_736_3986">
<rect width="20" height="20" fill="white" transform="translate(0.00390625)"/>
</clipPath>
<clipPath id="clip1_736_3986">
<rect width="20" height="20" fill="white" transform="translate(25.0039)"/>
</clipPath>
<clipPath id="clip2_736_3986">
<rect width="20" height="20" fill="white" transform="translate(50.0039)"/>
</clipPath>
<clipPath id="clip3_736_3986">
<rect width="20" height="20" fill="white" transform="translate(75.0039)"/>
</clipPath>
<clipPath id="clip4_736_3986">
<rect width="20" height="20" fill="white" transform="translate(100.004)"/>
</clipPath>
</defs>
</svg>
