<svg width="53" height="26" viewBox="0 0 53 26" fill="none" xmlns="http://www.w3.org/2000/svg">
<g filter="url(#filter0_d_5402_1029)">
<path d="M10.4121 0.65625H22.7754C23.3223 0.675781 23.7715 0.880859 24.123 1.27148C24.4941 1.66211 24.6797 2.13086 24.6797 2.67773C24.582 3.84961 23.9473 4.48438 22.7754 4.58203H11.4082C10.666 4.62109 10.0508 4.9043 9.5625 5.43164C9.07422 5.95898 8.71289 6.56445 8.47852 7.24805C8.26367 7.91211 8.15625 8.5957 8.15625 9.29883C8.15625 10.002 8.26367 10.6953 8.47852 11.3789C8.71289 12.043 9.07422 12.6387 9.5625 13.166C10.0508 13.6934 10.666 13.9766 11.4082 14.0156H20.3145C20.666 13.9961 20.8516 13.8008 20.8711 13.4297V11.7305C20.8516 11.3398 20.666 11.1445 20.3145 11.1445H12.8145C12.2676 11.1445 11.7988 10.959 11.4082 10.5879C11.0371 10.1973 10.8516 9.72852 10.8516 9.18164C10.8516 8.63477 11.0371 8.16602 11.4082 7.77539C11.7988 7.4043 12.2676 7.21875 12.8145 7.21875H22.834C23.3809 7.21875 23.8496 7.4043 24.2402 7.77539C24.5918 8.14648 24.7773 8.5957 24.7969 9.12305V9.18164V16.0371C24.7773 16.5645 24.5918 17.0039 24.2402 17.3555C23.8691 17.7266 23.4199 17.9219 22.8926 17.9414H10.4121C9.04492 17.8633 7.91211 17.3457 7.01367 16.3887C6.13477 15.4121 5.5 14.3086 5.10938 13.0781C4.73828 11.8477 4.55273 10.5879 4.55273 9.29883C4.55273 8.00977 4.74805 6.75 5.13867 5.51953C5.5293 4.28906 6.16406 3.19531 7.04297 2.23828C7.92188 1.26172 9.04492 0.734375 10.4121 0.65625ZM33.9961 0.65625H46.3594C46.9062 0.675781 47.3555 0.880859 47.707 1.27148C48.0781 1.66211 48.2637 2.13086 48.2637 2.67773C48.166 3.84961 47.5312 4.48438 46.3594 4.58203H34.9922C34.25 4.62109 33.6348 4.9043 33.1465 5.43164C32.6582 5.95898 32.2969 6.56445 32.0625 7.24805C31.8477 7.91211 31.7402 8.5957 31.7402 9.29883C31.7402 10.002 31.8477 10.6953 32.0625 11.3789C32.2969 12.043 32.6582 12.6387 33.1465 13.166C33.6348 13.6934 34.25 13.9766 34.9922 14.0156H43.8984C44.25 13.9961 44.4355 13.8008 44.4551 13.4297V11.7305C44.4355 11.3398 44.25 11.1445 43.8984 11.1445H36.3984C35.8516 11.1445 35.3828 10.959 34.9922 10.5879C34.6211 10.1973 34.4355 9.72852 34.4355 9.18164C34.4355 8.63477 34.6211 8.16602 34.9922 7.77539C35.3828 7.4043 35.8516 7.21875 36.3984 7.21875H46.418C46.9648 7.21875 47.4336 7.4043 47.8242 7.77539C48.1758 8.14648 48.3613 8.5957 48.3809 9.12305V9.18164V16.0371C48.3613 16.5645 48.1758 17.0039 47.8242 17.3555C47.4531 17.7266 47.0039 17.9219 46.4766 17.9414H33.9961C32.6289 17.8633 31.4961 17.3457 30.5977 16.3887C29.7188 15.4121 29.084 14.3086 28.6934 13.0781C28.3223 11.8477 28.1367 10.5879 28.1367 9.29883C28.1367 8.00977 28.332 6.75 28.7227 5.51953C29.1133 4.28906 29.748 3.19531 30.627 2.23828C31.5059 1.26172 32.6289 0.734375 33.9961 0.65625Z" fill="white"/>
</g>
<defs>
<filter id="filter0_d_5402_1029" x="0.552734" y="0.65625" width="51.8281" height="25.2852" filterUnits="userSpaceOnUse" color-interpolation-filters="sRGB">
<feFlood flood-opacity="0" result="BackgroundImageFix"/>
<feColorMatrix in="SourceAlpha" type="matrix" values="0 0 0 0 0 0 0 0 0 0 0 0 0 0 0 0 0 0 127 0" result="hardAlpha"/>
<feOffset dy="4"/>
<feGaussianBlur stdDeviation="2"/>
<feComposite in2="hardAlpha" operator="out"/>
<feColorMatrix type="matrix" values="0 0 0 0 0 0 0 0 0 0 0 0 0 0 0 0 0 0 0.25 0"/>
<feBlend mode="normal" in2="BackgroundImageFix" result="effect1_dropShadow_5402_1029"/>
<feBlend mode="normal" in="SourceGraphic" in2="effect1_dropShadow_5402_1029" result="shape"/>
</filter>
</defs>
</svg>
