<svg width="148" height="18" viewBox="0 0 148 18" fill="none" xmlns="http://www.w3.org/2000/svg">
<path d="M11.2307 5.26999V2.26999C11.2307 2.07108 11.3098 1.88031 11.4504 1.73966C11.5911 1.59901 11.7818 1.51999 11.9807 1.51999C12.1797 1.51999 12.3704 1.59901 12.5111 1.73966C12.6517 1.88031 12.7307 2.07108 12.7307 2.26999V4.22824C13.2032 3.75274 16.2565 0.683739 16.7005 0.239739C16.7697 0.168106 16.8524 0.11097 16.9439 0.0716628C17.0354 0.0323561 17.1339 0.0116664 17.2334 0.010801C17.333 0.00993566 17.4318 0.0289119 17.524 0.0666226C17.6161 0.104333 17.6999 0.160023 17.7703 0.230443C17.8407 0.300862 17.8964 0.384601 17.9341 0.476773C17.9718 0.568946 17.9908 0.667705 17.9899 0.76729C17.9891 0.866874 17.9684 0.965289 17.9291 1.05679C17.8898 1.1483 17.8326 1.23105 17.761 1.30024C17.317 1.74424 14.2795 4.79899 13.81 5.26999H15.7307C15.9297 5.26999 16.1204 5.34901 16.2611 5.48966C16.4017 5.63031 16.4807 5.82108 16.4807 6.01999C16.4807 6.2189 16.4017 6.40967 16.2611 6.55032C16.1204 6.69097 15.9297 6.76999 15.7307 6.76999H12.7307C12.3329 6.76999 11.9514 6.61195 11.6701 6.33065C11.3888 6.04935 11.2307 5.66781 11.2307 5.26999ZM17.302 12.5742C17.7366 13.0101 17.9807 13.6005 17.9807 14.216C17.9807 14.8315 17.7366 15.4219 17.302 15.8577L16.618 16.6452C10.4747 22.5237 -4.47126 7.58224 1.31799 1.42024L2.18049 0.670239C2.61672 0.247648 3.20179 0.013793 3.80912 0.019267C4.41645 0.0247409 4.9972 0.269104 5.42574 0.699489C5.44899 0.721989 6.83799 2.52799 6.83799 2.52799C7.24893 2.9619 7.47758 3.53702 7.47675 4.13464C7.47591 4.73225 7.24565 5.30674 6.83349 5.73949L5.96499 6.83149C6.44573 7.99926 7.15243 9.06056 8.04451 9.95443C8.93658 10.8483 9.99644 11.5571 11.1632 12.0402L12.262 11.1665C12.6939 10.7532 13.2683 10.5222 13.8661 10.5214C14.4638 10.5205 15.0389 10.75 15.472 11.162C15.472 11.162 17.2787 12.5517 17.302 12.5742ZM16.2707 13.6647C16.2707 13.6647 14.476 12.2832 14.4527 12.2607C14.2982 12.1075 14.0895 12.0216 13.8719 12.0216C13.6543 12.0216 13.4455 12.1075 13.291 12.2607C13.2707 12.2802 11.758 13.4862 11.758 13.4862C11.656 13.5674 11.5347 13.6206 11.406 13.6406C11.2772 13.6606 11.1455 13.6467 11.0237 13.6002C9.51131 13.0375 8.13754 12.1562 6.99556 11.0161C5.85358 9.8759 4.9701 8.50353 4.40499 6.99199C4.35489 6.86858 4.33856 6.73406 4.35767 6.60224C4.37678 6.47043 4.43065 6.34609 4.51374 6.24199C4.51374 6.24199 5.71974 4.73149 5.73999 4.71199C5.89319 4.55748 5.97915 4.3487 5.97915 4.13111C5.97915 3.91353 5.89319 3.70475 5.73999 3.55024C5.71749 3.52774 4.33599 1.73149 4.33599 1.73149C4.17917 1.59087 3.97449 1.51556 3.76393 1.521C3.55336 1.52644 3.35285 1.61221 3.20349 1.76074L2.34099 2.51074C-1.89051 7.59799 11.0635 19.8335 15.5207 15.623L16.2047 14.8347C16.366 14.6868 16.4631 14.4817 16.4755 14.2632C16.4878 14.0446 16.4143 13.8299 16.2707 13.6647Z" fill="white"/>
<path d="M38.9819 12.7898V6.06818H40.3193V12.7898H38.9819ZM36.2923 10.0952V8.76278H43.0139V10.0952H36.2923ZM45.0796 12.5114V11.2685L49.4794 4.31818H50.4589V6.14773H49.8374L46.6904 11.1293V11.2088H52.7209V12.5114H45.0796ZM49.907 14.5V12.1335L49.9169 11.5668V4.31818H51.3736V14.5H49.907ZM57.8392 4.17898C58.2932 4.18229 58.7407 4.26515 59.1815 4.42756C59.6223 4.58996 60.02 4.85511 60.3747 5.22301C60.7326 5.59091 61.0177 6.08807 61.2298 6.71449C61.4452 7.33759 61.5546 8.11316 61.5579 9.04119C61.5579 9.93276 61.4684 10.7266 61.2895 11.4226C61.1105 12.1153 60.8536 12.7003 60.5189 13.1776C60.1874 13.6548 59.7847 14.0178 59.3108 14.2663C58.8368 14.5149 58.3032 14.6392 57.7099 14.6392C57.1034 14.6392 56.5648 14.5199 56.0941 14.2812C55.6235 14.0426 55.2407 13.7128 54.9457 13.2919C54.6507 12.8677 54.4668 12.3804 54.3939 11.8303H55.9102C56.0096 12.2678 56.2118 12.6224 56.5167 12.8942C56.825 13.1626 57.2227 13.2969 57.7099 13.2969C58.4557 13.2969 59.0373 12.9721 59.4549 12.3224C59.8726 11.6695 60.083 10.758 60.0863 9.58807H60.0068C59.8344 9.87311 59.619 10.1184 59.3605 10.3239C59.1053 10.5294 58.8186 10.6884 58.5004 10.8011C58.1822 10.9138 57.8425 10.9702 57.4812 10.9702C56.8946 10.9702 56.361 10.826 55.8804 10.5376C55.3998 10.2493 55.017 9.85322 54.7319 9.34943C54.4469 8.84564 54.3044 8.2706 54.3044 7.62429C54.3044 6.9813 54.4502 6.39796 54.7419 5.87429C55.0369 5.35062 55.4478 4.93632 55.9748 4.63139C56.5051 4.32315 57.1266 4.17235 57.8392 4.17898ZM57.8441 5.47159C57.4564 5.47159 57.1067 5.56771 56.7951 5.75994C56.4869 5.94886 56.2433 6.20573 56.0643 6.53054C55.8853 6.85204 55.7959 7.20999 55.7959 7.6044C55.7959 7.99882 55.882 8.35677 56.0544 8.67827C56.23 8.99645 56.4687 9.25 56.7703 9.43892C57.0752 9.62453 57.4232 9.71733 57.8143 9.71733C58.106 9.71733 58.3778 9.66098 58.6297 9.5483C58.8816 9.43561 59.102 9.27983 59.2909 9.08097C59.4798 8.87879 59.6273 8.65009 59.7334 8.39489C59.8394 8.13968 59.8924 7.87121 59.8924 7.58949C59.8924 7.21496 59.803 6.86695 59.624 6.54545C59.4483 6.22396 59.2064 5.96544 58.8981 5.76989C58.5899 5.57102 58.2386 5.47159 57.8441 5.47159ZM66.8987 14.669C66.1131 14.6657 65.442 14.4586 64.8852 14.0476C64.3283 13.6366 63.9024 13.0384 63.6075 12.2528C63.3125 11.4673 63.165 10.5211 63.165 9.41406C63.165 8.31037 63.3125 7.36742 63.6075 6.58523C63.9058 5.80303 64.3333 5.20644 64.8901 4.79545C65.4503 4.38447 66.1198 4.17898 66.8987 4.17898C67.6775 4.17898 68.3454 4.38613 68.9022 4.80043C69.459 5.21141 69.8849 5.808 70.1799 6.5902C70.4782 7.36908 70.6274 8.31037 70.6274 9.41406C70.6274 10.5244 70.4799 11.4723 70.1849 12.2578C69.8899 13.04 69.464 13.6383 68.9072 14.0526C68.3504 14.4635 67.6809 14.669 66.8987 14.669ZM66.8987 13.3416C67.5881 13.3416 68.1266 13.0052 68.5144 12.3324C68.9055 11.6596 69.1011 10.6868 69.1011 9.41406C69.1011 8.56889 69.0116 7.85464 68.8326 7.27131C68.6569 6.68466 68.4034 6.24053 68.072 5.93892C67.7438 5.634 67.3527 5.48153 66.8987 5.48153C66.2126 5.48153 65.674 5.8196 65.2829 6.49574C64.8918 7.17187 64.6946 8.14465 64.6913 9.41406C64.6913 10.2625 64.7791 10.9801 64.9548 11.5668C65.1337 12.1501 65.3873 12.5926 65.7154 12.8942C66.0435 13.1925 66.438 13.3416 66.8987 13.3416ZM72.1772 12.5114V11.2685L76.5771 4.31818H77.5565V6.14773H76.9351L73.788 11.1293V11.2088H79.8186V12.5114H72.1772ZM77.0047 14.5V12.1335L77.0146 11.5668V4.31818H78.4713V14.5H77.0047ZM86.0704 8.76278V10.0554H81.5562V8.76278H86.0704ZM91.5764 14.669C90.7909 14.6657 90.1197 14.4586 89.5629 14.0476C89.0061 13.6366 88.5802 13.0384 88.2852 12.2528C87.9902 11.4673 87.8427 10.5211 87.8427 9.41406C87.8427 8.31037 87.9902 7.36742 88.2852 6.58523C88.5835 5.80303 89.0111 5.20644 89.5679 4.79545C90.128 4.38447 90.7975 4.17898 91.5764 4.17898C92.3553 4.17898 93.0231 4.38613 93.5799 4.80043C94.1368 5.21141 94.5627 5.808 94.8576 6.5902C95.1559 7.36908 95.3051 8.31037 95.3051 9.41406C95.3051 10.5244 95.1576 11.4723 94.8626 12.2578C94.5676 13.04 94.1417 13.6383 93.5849 14.0526C93.0281 14.4635 92.3586 14.669 91.5764 14.669ZM91.5764 13.3416C92.2658 13.3416 92.8044 13.0052 93.1922 12.3324C93.5833 11.6596 93.7788 10.6868 93.7788 9.41406C93.7788 8.56889 93.6893 7.85464 93.5103 7.27131C93.3347 6.68466 93.0811 6.24053 92.7497 5.93892C92.4216 5.634 92.0305 5.48153 91.5764 5.48153C90.8903 5.48153 90.3517 5.8196 89.9606 6.49574C89.5695 7.17187 89.3723 8.14465 89.369 9.41406C89.369 10.2625 89.4568 10.9801 89.6325 11.5668C89.8115 12.1501 90.065 12.5926 90.3932 12.8942C90.7213 13.1925 91.1157 13.3416 91.5764 13.3416ZM96.855 12.5114V11.2685L101.255 4.31818H102.234V6.14773H101.613L98.4658 11.1293V11.2088H104.496V12.5114H96.855ZM101.682 14.5V12.1335L101.692 11.5668V4.31818H103.149V14.5H101.682ZM109.615 4.17898C110.069 4.18229 110.516 4.26515 110.957 4.42756C111.398 4.58996 111.795 4.85511 112.15 5.22301C112.508 5.59091 112.793 6.08807 113.005 6.71449C113.221 7.33759 113.33 8.11316 113.333 9.04119C113.333 9.93276 113.244 10.7266 113.065 11.4226C112.886 12.1153 112.629 12.7003 112.294 13.1776C111.963 13.6548 111.56 14.0178 111.086 14.2663C110.612 14.5149 110.079 14.6392 109.485 14.6392C108.879 14.6392 108.34 14.5199 107.87 14.2812C107.399 14.0426 107.016 13.7128 106.721 13.2919C106.426 12.8677 106.242 12.3804 106.169 11.8303H107.686C107.785 12.2678 107.987 12.6224 108.292 12.8942C108.6 13.1626 108.998 13.2969 109.485 13.2969C110.231 13.2969 110.813 12.9721 111.23 12.3224C111.648 11.6695 111.858 10.758 111.862 9.58807H111.782C111.61 9.87311 111.394 10.1184 111.136 10.3239C110.881 10.5294 110.594 10.6884 110.276 10.8011C109.958 10.9138 109.618 10.9702 109.257 10.9702C108.67 10.9702 108.136 10.826 107.656 10.5376C107.175 10.2493 106.792 9.85322 106.507 9.34943C106.222 8.84564 106.08 8.2706 106.08 7.62429C106.08 6.9813 106.226 6.39796 106.517 5.87429C106.812 5.35062 107.223 4.93632 107.75 4.63139C108.281 4.32315 108.902 4.17235 109.615 4.17898ZM109.62 5.47159C109.232 5.47159 108.882 5.56771 108.571 5.75994C108.262 5.94886 108.019 6.20573 107.84 6.53054C107.661 6.85204 107.571 7.20999 107.571 7.6044C107.571 7.99882 107.657 8.35677 107.83 8.67827C108.005 8.99645 108.244 9.25 108.546 9.43892C108.851 9.62453 109.199 9.71733 109.59 9.71733C109.881 9.71733 110.153 9.66098 110.405 9.5483C110.657 9.43561 110.877 9.27983 111.066 9.08097C111.255 8.87879 111.403 8.65009 111.509 8.39489C111.615 8.13968 111.668 7.87121 111.668 7.58949C111.668 7.21496 111.578 6.86695 111.399 6.54545C111.224 6.22396 110.982 5.96544 110.674 5.76989C110.365 5.57102 110.014 5.47159 109.62 5.47159ZM119.648 8.76278V10.0554H115.134V8.76278H119.648ZM124.995 4.17898C125.449 4.18229 125.897 4.26515 126.338 4.42756C126.779 4.58996 127.176 4.85511 127.531 5.22301C127.889 5.59091 128.174 6.08807 128.386 6.71449C128.601 7.33759 128.711 8.11316 128.714 9.04119C128.714 9.93276 128.625 10.7266 128.446 11.4226C128.267 12.1153 128.01 12.7003 127.675 13.1776C127.344 13.6548 126.941 14.0178 126.467 14.2663C125.993 14.5149 125.459 14.6392 124.866 14.6392C124.26 14.6392 123.721 14.5199 123.25 14.2812C122.78 14.0426 122.397 13.7128 122.102 13.2919C121.807 12.8677 121.623 12.3804 121.55 11.8303H123.066C123.166 12.2678 123.368 12.6224 123.673 12.8942C123.981 13.1626 124.379 13.2969 124.866 13.2969C125.612 13.2969 126.194 12.9721 126.611 12.3224C127.029 11.6695 127.239 10.758 127.243 9.58807H127.163C126.991 9.87311 126.775 10.1184 126.517 10.3239C126.262 10.5294 125.975 10.6884 125.657 10.8011C125.338 10.9138 124.999 10.9702 124.637 10.9702C124.051 10.9702 123.517 10.826 123.037 10.5376C122.556 10.2493 122.173 9.85322 121.888 9.34943C121.603 8.84564 121.461 8.2706 121.461 7.62429C121.461 6.9813 121.606 6.39796 121.898 5.87429C122.193 5.35062 122.604 4.93632 123.131 4.63139C123.661 4.32315 124.283 4.17235 124.995 4.17898ZM125 5.47159C124.613 5.47159 124.263 5.56771 123.951 5.75994C123.643 5.94886 123.4 6.20573 123.221 6.53054C123.042 6.85204 122.952 7.20999 122.952 7.6044C122.952 7.99882 123.038 8.35677 123.211 8.67827C123.386 8.99645 123.625 9.25 123.927 9.43892C124.231 9.62453 124.579 9.71733 124.971 9.71733C125.262 9.71733 125.534 9.66098 125.786 9.5483C126.038 9.43561 126.258 9.27983 126.447 9.08097C126.636 8.87879 126.784 8.65009 126.89 8.39489C126.996 8.13968 127.049 7.87121 127.049 7.58949C127.049 7.21496 126.959 6.86695 126.78 6.54545C126.605 6.22396 126.363 5.96544 126.054 5.76989C125.746 5.57102 125.395 5.47159 125 5.47159ZM133.871 14.6392C133.248 14.6392 132.688 14.5199 132.191 14.2812C131.697 14.0393 131.302 13.7079 131.007 13.2869C130.712 12.866 130.555 12.3854 130.535 11.8452H132.027C132.063 12.2827 132.257 12.6423 132.608 12.924C132.96 13.2057 133.38 13.3466 133.871 13.3466C134.262 13.3466 134.608 13.2571 134.91 13.0781C135.215 12.8958 135.454 12.6456 135.626 12.3274C135.802 12.0092 135.889 11.6463 135.889 11.2386C135.889 10.8243 135.8 10.4548 135.621 10.13C135.442 9.80516 135.195 9.54995 134.88 9.36435C134.569 9.17874 134.211 9.08428 133.806 9.08097C133.498 9.08097 133.188 9.134 132.877 9.24006C132.565 9.34612 132.313 9.48532 132.121 9.65767L130.714 9.44886L131.286 4.31818H136.884V5.63565H132.563L132.24 8.48438H132.3C132.499 8.29214 132.762 8.13139 133.09 8.00213C133.422 7.87287 133.777 7.80824 134.154 7.80824C134.774 7.80824 135.326 7.95573 135.81 8.25071C136.297 8.54569 136.68 8.94839 136.958 9.45881C137.24 9.96591 137.379 10.5492 137.376 11.2088C137.379 11.8684 137.23 12.4567 136.928 12.9737C136.63 13.4908 136.216 13.8984 135.686 14.1967C135.159 14.4917 134.554 14.6392 133.871 14.6392ZM142.737 14.669C141.951 14.6657 141.28 14.4586 140.723 14.0476C140.166 13.6366 139.74 13.0384 139.445 12.2528C139.15 11.4673 139.003 10.5211 139.003 9.41406C139.003 8.31037 139.15 7.36742 139.445 6.58523C139.744 5.80303 140.171 5.20644 140.728 4.79545C141.288 4.38447 141.958 4.17898 142.737 4.17898C143.515 4.17898 144.183 4.38613 144.74 4.80043C145.297 5.21141 145.723 5.808 146.018 6.5902C146.316 7.36908 146.465 8.31037 146.465 9.41406C146.465 10.5244 146.318 11.4723 146.023 12.2578C145.728 13.04 145.302 13.6383 144.745 14.0526C144.188 14.4635 143.519 14.669 142.737 14.669ZM142.737 13.3416C143.426 13.3416 143.965 13.0052 144.352 12.3324C144.743 11.6596 144.939 10.6868 144.939 9.41406C144.939 8.56889 144.849 7.85464 144.67 7.27131C144.495 6.68466 144.241 6.24053 143.91 5.93892C143.582 5.634 143.191 5.48153 142.737 5.48153C142.05 5.48153 141.512 5.8196 141.121 6.49574C140.73 7.17187 140.532 8.14465 140.529 9.41406C140.529 10.2625 140.617 10.9801 140.793 11.5668C140.972 12.1501 141.225 12.5926 141.553 12.8942C141.881 13.1925 142.276 13.3416 142.737 13.3416Z" fill="white"/>
</svg>
