<svg width="19" height="18" viewBox="0 0 19 18" fill="none" xmlns="http://www.w3.org/2000/svg">
<g clip-path="url(#clip0_736_3621)">
<path d="M14.6752 12.5825C15.8726 10.9823 16.4194 8.98794 16.2055 7.00083C15.9915 5.01372 15.0328 3.18142 13.5222 1.87277C12.0117 0.56412 10.0614 -0.12372 8.06413 -0.0522878C6.06681 0.0191442 4.17071 0.844545 2.75749 2.25776C1.34427 3.67098 0.51887 5.56709 0.447438 7.5644C0.376006 9.56172 1.06385 11.5119 2.3725 13.0225C3.68115 14.5331 5.51345 15.4918 7.50056 15.7057C9.48767 15.9197 11.482 15.3729 13.0822 14.1755L16.9072 18.0005L18.5002 16.4105L14.6752 12.5825ZM8.37524 13.5005C7.26272 13.5005 6.17518 13.1706 5.25016 12.5525C4.32513 11.9344 3.60416 11.0559 3.17842 10.0281C2.75268 9.00028 2.64128 7.86928 2.85832 6.77813C3.07537 5.68699 3.61109 4.68471 4.39776 3.89804C5.18444 3.11137 6.18671 2.57564 7.27786 2.3586C8.369 2.14156 9.5 2.25295 10.5278 2.67869C11.5557 3.10444 12.4342 3.82541 13.0523 4.75043C13.6703 5.67546 14.0002 6.763 14.0002 7.87552C13.9989 9.36693 13.4058 10.7969 12.3512 11.8515C11.2966 12.906 9.86666 13.4991 8.37524 13.5005Z" fill="white"/>
</g>
<defs>
<clipPath id="clip0_736_3621">
<rect width="18" height="18" fill="white" transform="translate(0.5)"/>
</clipPath>
</defs>
</svg>
