<svg width="74" height="22" viewBox="0 0 74 22" fill="none" xmlns="http://www.w3.org/2000/svg">
<g filter="url(#filter0_d_5408_1009)">
<path d="M10.8011 2.86364C10.7415 2.35985 10.4995 1.96875 10.0753 1.69034C9.65104 1.41193 9.13068 1.27273 8.5142 1.27273C8.06345 1.27273 7.66903 1.34564 7.33097 1.49148C6.99621 1.63731 6.73438 1.83783 6.54545 2.09304C6.35985 2.34825 6.26705 2.63826 6.26705 2.96307C6.26705 3.23485 6.33168 3.46851 6.46094 3.66406C6.59351 3.8563 6.76255 4.01705 6.96804 4.14631C7.17353 4.27225 7.38897 4.37666 7.61435 4.45952C7.83973 4.53906 8.04688 4.60369 8.2358 4.65341L9.26989 4.93182C9.53504 5.00142 9.83002 5.09754 10.1548 5.22017C10.483 5.3428 10.7962 5.51018 11.0945 5.7223C11.3961 5.93111 11.6446 6.19957 11.8402 6.5277C12.0357 6.85582 12.1335 7.25852 12.1335 7.7358C12.1335 8.28598 11.9893 8.78314 11.701 9.22727C11.416 9.6714 10.9983 10.0244 10.4482 10.2862C9.90128 10.5481 9.23674 10.679 8.45455 10.679C7.72538 10.679 7.09399 10.5613 6.56037 10.326C6.03007 10.0907 5.61245 9.76255 5.30753 9.34162C5.00592 8.92069 4.83523 8.43182 4.79545 7.875H6.06818C6.10133 8.25947 6.23059 8.57765 6.45597 8.82955C6.68466 9.07812 6.97301 9.26373 7.32102 9.38636C7.67235 9.50568 8.05019 9.56534 8.45455 9.56534C8.92519 9.56534 9.34777 9.48911 9.7223 9.33665C10.0968 9.18087 10.3935 8.96544 10.6122 8.69034C10.831 8.41193 10.9403 8.08712 10.9403 7.71591C10.9403 7.37784 10.8459 7.10275 10.657 6.89062C10.468 6.6785 10.2195 6.50616 9.91122 6.37358C9.60298 6.241 9.26989 6.125 8.91193 6.02557L7.65909 5.66761C6.86364 5.43892 6.2339 5.11245 5.76989 4.68821C5.30587 4.26397 5.07386 3.70881 5.07386 3.02273C5.07386 2.45265 5.22798 1.95549 5.53622 1.53125C5.84777 1.10369 6.26539 0.772253 6.78906 0.536932C7.31605 0.298295 7.90436 0.178977 8.55398 0.178977C9.21023 0.178977 9.79356 0.296638 10.304 0.53196C10.8144 0.763967 11.2188 1.08215 11.517 1.48651C11.8187 1.89086 11.9777 2.3499 11.9943 2.86364H10.8011ZM15.1749 5.90625V10.5H14.0016V0.318182H15.1749V4.05682H15.2743C15.4533 3.66241 15.7218 3.34919 16.0797 3.11719C16.441 2.88187 16.9216 2.7642 17.5215 2.7642C18.0418 2.7642 18.4976 2.86861 18.8887 3.07741C19.2798 3.28291 19.583 3.59943 19.7985 4.02699C20.0172 4.45123 20.1266 4.99148 20.1266 5.64773V10.5H18.9533V5.72727C18.9533 5.12074 18.7959 4.65175 18.481 4.32031C18.1694 3.98556 17.7369 3.81818 17.1834 3.81818C16.7989 3.81818 16.4542 3.89938 16.1493 4.06179C15.8477 4.22419 15.6091 4.46117 15.4334 4.77273C15.2611 5.08428 15.1749 5.46212 15.1749 5.90625ZM25.3754 10.6591C24.686 10.6591 24.0811 10.495 23.5607 10.1669C23.0437 9.83878 22.6393 9.37973 22.3477 8.78977C22.0593 8.19981 21.9151 7.51042 21.9151 6.72159C21.9151 5.92614 22.0593 5.23177 22.3477 4.63849C22.6393 4.04522 23.0437 3.58452 23.5607 3.25639C24.0811 2.92827 24.686 2.7642 25.3754 2.7642C26.0647 2.7642 26.668 2.92827 27.185 3.25639C27.7054 3.58452 28.1097 4.04522 28.3981 4.63849C28.6897 5.23177 28.8356 5.92614 28.8356 6.72159C28.8356 7.51042 28.6897 8.19981 28.3981 8.78977C28.1097 9.37973 27.7054 9.83878 27.185 10.1669C26.668 10.495 26.0647 10.6591 25.3754 10.6591ZM25.3754 9.60511C25.899 9.60511 26.3299 9.47088 26.668 9.20241C27.006 8.93395 27.2563 8.58097 27.4187 8.14347C27.5811 7.70597 27.6623 7.23201 27.6623 6.72159C27.6623 6.21117 27.5811 5.73556 27.4187 5.29474C27.2563 4.85393 27.006 4.49763 26.668 4.22585C26.3299 3.95407 25.899 3.81818 25.3754 3.81818C24.8517 3.81818 24.4208 3.95407 24.0827 4.22585C23.7447 4.49763 23.4944 4.85393 23.332 5.29474C23.1696 5.73556 23.0884 6.21117 23.0884 6.72159C23.0884 7.23201 23.1696 7.70597 23.332 8.14347C23.4944 8.58097 23.7447 8.93395 24.0827 9.20241C24.4208 9.47088 24.8517 9.60511 25.3754 9.60511ZM30.6266 13.3636V2.86364H31.7601V4.0767H31.8993C31.9855 3.94413 32.1048 3.77509 32.2573 3.5696C32.4131 3.3608 32.6351 3.17519 32.9235 3.01278C33.2151 2.84706 33.6096 2.7642 34.1067 2.7642C34.7497 2.7642 35.3165 2.92495 35.807 3.24645C36.2975 3.56794 36.6803 4.02367 36.9554 4.61364C37.2305 5.2036 37.3681 5.89962 37.3681 6.7017C37.3681 7.51042 37.2305 8.21141 36.9554 8.80469C36.6803 9.39465 36.2992 9.85204 35.812 10.1768C35.3248 10.4983 34.763 10.6591 34.1266 10.6591C33.6361 10.6591 33.2433 10.5779 32.9483 10.4155C32.6533 10.2498 32.4263 10.0625 32.2672 9.85369C32.1081 9.64157 31.9855 9.46591 31.8993 9.3267H31.7999V13.3636H30.6266ZM31.78 6.68182C31.78 7.25852 31.8645 7.76728 32.0336 8.2081C32.2026 8.6456 32.4495 8.98864 32.7743 9.23722C33.0991 9.48248 33.4969 9.60511 33.9675 9.60511C34.458 9.60511 34.8674 9.47585 35.1955 9.21733C35.5269 8.95549 35.7755 8.60417 35.9412 8.16335C36.1103 7.71922 36.1948 7.22538 36.1948 6.68182C36.1948 6.14489 36.1119 5.66098 35.9462 5.23011C35.7838 4.79593 35.5369 4.45289 35.2054 4.20099C34.8773 3.94579 34.4647 3.81818 33.9675 3.81818C33.4902 3.81818 33.0892 3.93916 32.7644 4.18111C32.4396 4.41974 32.1943 4.7545 32.0286 5.18537C31.8629 5.61293 31.78 6.11174 31.78 6.68182ZM44.2686 5.90625V10.5H43.0953V2.86364H44.2289V4.05682H44.3283C44.5073 3.66903 44.7791 3.35748 45.1436 3.12216C45.5082 2.88352 45.9789 2.7642 46.5556 2.7642C47.0726 2.7642 47.525 2.87027 47.9128 3.08239C48.3006 3.29119 48.6022 3.60938 48.8176 4.03693C49.0331 4.46117 49.1408 4.99811 49.1408 5.64773V10.5H47.9675V5.72727C47.9675 5.12737 47.8117 4.66004 47.5002 4.32528C47.1886 3.98722 46.7611 3.81818 46.2175 3.81818C45.843 3.81818 45.5082 3.89938 45.2132 4.06179C44.9216 4.22419 44.6912 4.46117 44.5222 4.77273C44.3532 5.08428 44.2686 5.46212 44.2686 5.90625ZM54.3871 10.6591C53.6977 10.6591 53.0928 10.495 52.5724 10.1669C52.0554 9.83878 51.651 9.37973 51.3594 8.78977C51.071 8.19981 50.9268 7.51042 50.9268 6.72159C50.9268 5.92614 51.071 5.23177 51.3594 4.63849C51.651 4.04522 52.0554 3.58452 52.5724 3.25639C53.0928 2.92827 53.6977 2.7642 54.3871 2.7642C55.0765 2.7642 55.6797 2.92827 56.1967 3.25639C56.7171 3.58452 57.1214 4.04522 57.4098 4.63849C57.7015 5.23177 57.8473 5.92614 57.8473 6.72159C57.8473 7.51042 57.7015 8.19981 57.4098 8.78977C57.1214 9.37973 56.7171 9.83878 56.1967 10.1669C55.6797 10.495 55.0765 10.6591 54.3871 10.6591ZM54.3871 9.60511C54.9107 9.60511 55.3416 9.47088 55.6797 9.20241C56.0178 8.93395 56.268 8.58097 56.4304 8.14347C56.5928 7.70597 56.674 7.23201 56.674 6.72159C56.674 6.21117 56.5928 5.73556 56.4304 5.29474C56.268 4.85393 56.0178 4.49763 55.6797 4.22585C55.3416 3.95407 54.9107 3.81818 54.3871 3.81818C53.8634 3.81818 53.4325 3.95407 53.0945 4.22585C52.7564 4.49763 52.5062 4.85393 52.3438 5.29474C52.1813 5.73556 52.1001 6.21117 52.1001 6.72159C52.1001 7.23201 52.1813 7.70597 52.3438 8.14347C52.5062 8.58097 52.7564 8.93395 53.0945 9.20241C53.4325 9.47088 53.8634 9.60511 54.3871 9.60511ZM61.1087 10.5L58.782 2.86364H60.0149L61.6655 8.71023H61.745L63.3757 2.86364H64.6286L66.2393 8.69034H66.3189L67.9695 2.86364H69.2024L66.8757 10.5H65.7223L64.0518 4.63352H63.9325L62.2621 10.5H61.1087Z" fill="white"/>
</g>
<defs>
<filter id="filter0_d_5408_1009" x="0.79541" y="0.17897" width="72.4072" height="21.1847" filterUnits="userSpaceOnUse" color-interpolation-filters="sRGB">
<feFlood flood-opacity="0" result="BackgroundImageFix"/>
<feColorMatrix in="SourceAlpha" type="matrix" values="0 0 0 0 0 0 0 0 0 0 0 0 0 0 0 0 0 0 127 0" result="hardAlpha"/>
<feOffset dy="4"/>
<feGaussianBlur stdDeviation="2"/>
<feComposite in2="hardAlpha" operator="out"/>
<feColorMatrix type="matrix" values="0 0 0 0 0 0 0 0 0 0 0 0 0 0 0 0 0 0 0.25 0"/>
<feBlend mode="normal" in2="BackgroundImageFix" result="effect1_dropShadow_5408_1009"/>
<feBlend mode="normal" in="SourceGraphic" in2="effect1_dropShadow_5408_1009" result="shape"/>
</filter>
</defs>
</svg>
