<svg width="237" height="20" viewBox="0 0 237 20" fill="none" xmlns="http://www.w3.org/2000/svg">
<g filter="url(#filter0_d_5408_1007)">
<path d="M12.1932 4.5C12.0838 4.16525 11.9396 3.86529 11.7607 3.60014C11.585 3.33168 11.3745 3.10298 11.1293 2.91406C10.8873 2.72514 10.6122 2.58097 10.304 2.48153C9.99574 2.3821 9.65767 2.33239 9.28977 2.33239C8.68655 2.33239 8.13802 2.48816 7.64418 2.79972C7.15033 3.11127 6.75758 3.57031 6.46591 4.17685C6.17424 4.78338 6.02841 5.52746 6.02841 6.40909C6.02841 7.29072 6.1759 8.0348 6.47088 8.64134C6.76586 9.24787 7.16525 9.70691 7.66903 10.0185C8.17282 10.33 8.73958 10.4858 9.36932 10.4858C9.95265 10.4858 10.4664 10.3615 10.9105 10.1129C11.358 9.86103 11.706 9.50639 11.9545 9.04901C12.2064 8.5883 12.3324 8.0464 12.3324 7.4233L12.7102 7.50284H9.64773V6.40909H13.5256V7.50284C13.5256 8.34138 13.3466 9.07055 12.9886 9.69034C12.634 10.3101 12.1435 10.7907 11.517 11.1321C10.8939 11.4702 10.178 11.6392 9.36932 11.6392C8.4678 11.6392 7.67566 11.4271 6.9929 11.0028C6.31345 10.5786 5.78314 9.97538 5.40199 9.19318C5.02415 8.41098 4.83523 7.48295 4.83523 6.40909C4.83523 5.60369 4.94295 4.8795 5.15838 4.23651C5.37713 3.5902 5.68537 3.04001 6.0831 2.58594C6.48082 2.13187 6.95147 1.78385 7.49503 1.5419C8.03859 1.29995 8.63684 1.17898 9.28977 1.17898C9.8267 1.17898 10.3272 1.26018 10.7912 1.42258C11.2585 1.58168 11.6745 1.80871 12.0391 2.10369C12.407 2.39536 12.7135 2.74503 12.9588 3.1527C13.2041 3.55705 13.3731 4.00616 13.4659 4.5H12.1932ZM18.6799 11.6591C17.9441 11.6591 17.3094 11.4967 16.7757 11.1719C16.2454 10.8438 15.8361 10.3864 15.5478 9.79972C15.2627 9.20975 15.1202 8.52367 15.1202 7.74148C15.1202 6.95928 15.2627 6.26989 15.5478 5.6733C15.8361 5.07339 16.2372 4.60606 16.7509 4.27131C17.2679 3.93324 17.8712 3.7642 18.5605 3.7642C18.9583 3.7642 19.351 3.83049 19.7388 3.96307C20.1266 4.09564 20.4796 4.31108 20.7978 4.60938C21.1159 4.90436 21.3695 5.29545 21.5584 5.78267C21.7473 6.26989 21.8418 6.86979 21.8418 7.58239V8.07955H15.9554V7.06534H20.6486C20.6486 6.63447 20.5624 6.25 20.3901 5.91193C20.2211 5.57386 19.9791 5.30705 19.6642 5.11151C19.3527 4.91596 18.9848 4.81818 18.5605 4.81818C18.0932 4.81818 17.6889 4.93419 17.3475 5.16619C17.0094 5.39489 16.7492 5.69318 16.5669 6.06108C16.3846 6.42898 16.2935 6.82339 16.2935 7.24432V7.92045C16.2935 8.49716 16.3929 8.98603 16.5918 9.38707C16.794 9.7848 17.074 10.0881 17.432 10.2969C17.79 10.5024 18.2059 10.6051 18.6799 10.6051C18.9881 10.6051 19.2665 10.562 19.5151 10.4759C19.767 10.3864 19.9841 10.2538 20.1664 10.0781C20.3487 9.89915 20.4895 9.67708 20.589 9.41193L21.7225 9.73011C21.6032 10.1146 21.4026 10.4527 21.1209 10.7443C20.8392 11.0327 20.4912 11.258 20.0769 11.4205C19.6626 11.5795 19.1969 11.6591 18.6799 11.6591ZM26.9476 3.86364V4.85795H22.9902V3.86364H26.9476ZM24.1436 2.03409H25.3169V9.3125C25.3169 9.64394 25.365 9.89252 25.4611 10.0582C25.5605 10.2206 25.6865 10.33 25.839 10.3864C25.9947 10.4394 26.1588 10.4659 26.3311 10.4659C26.4604 10.4659 26.5665 10.4593 26.6493 10.446C26.7322 10.4295 26.7985 10.4162 26.8482 10.4062L27.0868 11.4602C27.0073 11.4901 26.8962 11.5199 26.7537 11.5497C26.6112 11.5829 26.4306 11.5994 26.2118 11.5994C25.8804 11.5994 25.5556 11.5282 25.2374 11.3857C24.9225 11.2431 24.6607 11.026 24.4519 10.7344C24.2464 10.4427 24.1436 10.0748 24.1436 9.63068V2.03409ZM35.812 11.6392C35.2286 11.6392 34.7033 11.5232 34.236 11.2912C33.7686 11.0592 33.3941 10.741 33.1124 10.3366C32.8307 9.93229 32.6766 9.47159 32.65 8.95455H33.8432C33.8896 9.41525 34.0984 9.7964 34.4696 10.098C34.8442 10.3963 35.2916 10.5455 35.812 10.5455C36.2296 10.5455 36.6008 10.4477 36.9256 10.2521C37.2537 10.0566 37.5106 9.78812 37.6962 9.44673C37.8851 9.10204 37.9796 8.71259 37.9796 8.27841C37.9796 7.83428 37.8818 7.43821 37.6863 7.0902C37.494 6.73887 37.2289 6.46212 36.8908 6.25994C36.5527 6.05776 36.1666 5.95502 35.7324 5.9517C35.4209 5.94839 35.101 5.99645 34.7729 6.09588C34.4448 6.192 34.1747 6.31629 33.9625 6.46875L32.8091 6.32955L33.4256 1.31818H38.7154V2.41193H34.4597L34.1017 5.41477H34.1614C34.3702 5.24905 34.632 5.11151 34.9469 5.00213C35.2618 4.89276 35.5899 4.83807 35.9313 4.83807C36.5544 4.83807 37.1096 4.98722 37.5968 5.28551C38.0873 5.58049 38.4718 5.98485 38.7502 6.49858C39.0319 7.01231 39.1728 7.59896 39.1728 8.25852C39.1728 8.90814 39.0269 9.48816 38.7353 9.99858C38.4469 10.5057 38.0492 10.9067 37.5421 11.2017C37.035 11.4934 36.4583 11.6392 35.812 11.6392ZM44.4688 11.6392C43.7197 11.6392 43.0817 11.4354 42.5547 11.0277C42.0277 10.6167 41.625 10.0218 41.3466 9.2429C41.0682 8.4607 40.929 7.5161 40.929 6.40909C40.929 5.30871 41.0682 4.36908 41.3466 3.5902C41.6283 2.808 42.0327 2.21141 42.5597 1.80043C43.09 1.38613 43.7263 1.17898 44.4688 1.17898C45.2112 1.17898 45.8459 1.38613 46.3729 1.80043C46.9032 2.21141 47.3075 2.808 47.5859 3.5902C47.8677 4.36908 48.0085 5.30871 48.0085 6.40909C48.0085 7.5161 47.8693 8.4607 47.5909 9.2429C47.3125 10.0218 46.9098 10.6167 46.3828 11.0277C45.8558 11.4354 45.2178 11.6392 44.4688 11.6392ZM44.4688 10.5455C45.2112 10.5455 45.7879 10.1875 46.1989 9.47159C46.6098 8.75568 46.8153 7.73485 46.8153 6.40909C46.8153 5.52746 46.7209 4.77675 46.532 4.15696C46.3464 3.53717 46.0779 3.06487 45.7266 2.74006C45.3786 2.41525 44.9593 2.25284 44.4688 2.25284C43.733 2.25284 43.1579 2.61577 42.7436 3.34162C42.3293 4.06416 42.1222 5.08665 42.1222 6.40909C42.1222 7.29072 42.215 8.03977 42.4006 8.65625C42.5862 9.27273 42.853 9.74171 43.201 10.0632C43.5523 10.3847 43.9749 10.5455 44.4688 10.5455ZM55.0881 9.59091V9.05398C55.0881 8.68277 55.1643 8.34304 55.3168 8.0348C55.4725 7.72325 55.6979 7.47467 55.9929 7.28906C56.2912 7.10014 56.6525 7.00568 57.0767 7.00568C57.5076 7.00568 57.8688 7.10014 58.1605 7.28906C58.4522 7.47467 58.6726 7.72325 58.8217 8.0348C58.9709 8.34304 59.0455 8.68277 59.0455 9.05398V9.59091C59.0455 9.96212 58.9692 10.3035 58.8168 10.6151C58.6676 10.9233 58.4455 11.1719 58.1506 11.3608C57.8589 11.5464 57.5009 11.6392 57.0767 11.6392C56.6458 11.6392 56.2829 11.5464 55.9879 11.3608C55.6929 11.1719 55.4692 10.9233 55.3168 10.6151C55.1643 10.3035 55.0881 9.96212 55.0881 9.59091ZM56.1023 9.05398V9.59091C56.1023 9.89915 56.1752 10.1759 56.321 10.4212C56.4669 10.6631 56.7188 10.7841 57.0767 10.7841C57.4247 10.7841 57.67 10.6631 57.8125 10.4212C57.9583 10.1759 58.0312 9.89915 58.0312 9.59091V9.05398C58.0312 8.74574 57.9616 8.47064 57.8224 8.22869C57.6832 7.98343 57.4347 7.8608 57.0767 7.8608C56.7287 7.8608 56.4785 7.98343 56.326 8.22869C56.1768 8.47064 56.1023 8.74574 56.1023 9.05398ZM50.017 3.7642V3.22727C50.017 2.85606 50.0933 2.51634 50.2457 2.2081C50.4015 1.89654 50.6269 1.64796 50.9219 1.46236C51.2202 1.27344 51.5814 1.17898 52.0057 1.17898C52.4366 1.17898 52.7978 1.27344 53.0895 1.46236C53.3812 1.64796 53.6016 1.89654 53.7507 2.2081C53.8999 2.51634 53.9744 2.85606 53.9744 3.22727V3.7642C53.9744 4.13542 53.8982 4.4768 53.7457 4.78835C53.5966 5.09659 53.3745 5.34517 53.0795 5.53409C52.7879 5.7197 52.4299 5.8125 52.0057 5.8125C51.5748 5.8125 51.2119 5.7197 50.9169 5.53409C50.6219 5.34517 50.3982 5.09659 50.2457 4.78835C50.0933 4.4768 50.017 4.13542 50.017 3.7642ZM51.0312 3.22727V3.7642C51.0312 4.07244 51.1042 4.3492 51.25 4.59446C51.3958 4.83641 51.6477 4.95739 52.0057 4.95739C52.3537 4.95739 52.599 4.83641 52.7415 4.59446C52.8873 4.3492 52.9602 4.07244 52.9602 3.7642V3.22727C52.9602 2.91903 52.8906 2.64394 52.7514 2.40199C52.6122 2.15672 52.3636 2.03409 52.0057 2.03409C51.6577 2.03409 51.4074 2.15672 51.255 2.40199C51.1058 2.64394 51.0312 2.91903 51.0312 3.22727ZM50.3949 11.5L57.3949 1.31818H58.5284L51.5284 11.5H50.3949ZM73.9801 6.40909C73.9801 7.48295 73.7862 8.41098 73.3984 9.19318C73.0107 9.97538 72.4787 10.5786 71.8026 11.0028C71.1264 11.4271 70.3542 11.6392 69.4858 11.6392C68.6174 11.6392 67.8452 11.4271 67.169 11.0028C66.4929 10.5786 65.9609 9.97538 65.5732 9.19318C65.1854 8.41098 64.9915 7.48295 64.9915 6.40909C64.9915 5.33523 65.1854 4.4072 65.5732 3.625C65.9609 2.8428 66.4929 2.23958 67.169 1.81534C67.8452 1.3911 68.6174 1.17898 69.4858 1.17898C70.3542 1.17898 71.1264 1.3911 71.8026 1.81534C72.4787 2.23958 73.0107 2.8428 73.3984 3.625C73.7862 4.4072 73.9801 5.33523 73.9801 6.40909ZM72.7869 6.40909C72.7869 5.52746 72.6394 4.78338 72.3445 4.17685C72.0528 3.57031 71.6567 3.11127 71.1562 2.79972C70.6591 2.48816 70.1023 2.33239 69.4858 2.33239C68.8693 2.33239 68.3108 2.48816 67.8104 2.79972C67.3132 3.11127 66.9171 3.57031 66.6222 4.17685C66.3305 4.78338 66.1847 5.52746 66.1847 6.40909C66.1847 7.29072 66.3305 8.0348 66.6222 8.64134C66.9171 9.24787 67.3132 9.70691 67.8104 10.0185C68.3108 10.33 68.8693 10.4858 69.4858 10.4858C70.1023 10.4858 70.6591 10.33 71.1562 10.0185C71.6567 9.70691 72.0528 9.24787 72.3445 8.64134C72.6394 8.0348 72.7869 7.29072 72.7869 6.40909ZM79.2947 3.86364V4.85795H75.1783V3.86364H79.2947ZM76.4112 11.5V2.80966C76.4112 2.37216 76.514 2.00758 76.7195 1.71591C76.925 1.42424 77.1918 1.20549 77.5199 1.05966C77.848 0.913825 78.1944 0.840908 78.5589 0.840908C78.8473 0.840908 79.0826 0.864109 79.2649 0.910511C79.4472 0.956912 79.5831 0.999999 79.6726 1.03977L79.3345 2.05398C79.2749 2.03409 79.192 2.00923 79.0859 1.9794C78.9832 1.94957 78.8473 1.93466 78.6783 1.93466C78.2905 1.93466 78.0104 2.03243 77.8381 2.22798C77.669 2.42353 77.5845 2.71023 77.5845 3.08807V11.5H76.4112ZM84.3397 3.86364V4.85795H80.2232V3.86364H84.3397ZM81.4561 11.5V2.80966C81.4561 2.37216 81.5589 2.00758 81.7644 1.71591C81.9699 1.42424 82.2367 1.20549 82.5648 1.05966C82.8929 0.913825 83.2393 0.840908 83.6039 0.840908C83.8922 0.840908 84.1275 0.864109 84.3098 0.910511C84.4921 0.956912 84.628 0.999999 84.7175 1.03977L84.3794 2.05398C84.3198 2.03409 84.2369 2.00923 84.1309 1.9794C84.0281 1.94957 83.8922 1.93466 83.7232 1.93466C83.3354 1.93466 83.0553 2.03243 82.883 2.22798C82.714 2.42353 82.6294 2.71023 82.6294 3.08807V11.5H81.4561ZM93.0238 11.6591C92.3344 11.6591 91.7295 11.495 91.2092 11.1669C90.6921 10.8388 90.2878 10.3797 89.9961 9.78977C89.7077 9.19981 89.5636 8.51042 89.5636 7.72159C89.5636 6.92614 89.7077 6.23177 89.9961 5.63849C90.2878 5.04522 90.6921 4.58452 91.2092 4.25639C91.7295 3.92827 92.3344 3.7642 93.0238 3.7642C93.7132 3.7642 94.3164 3.92827 94.8335 4.25639C95.3538 4.58452 95.7582 5.04522 96.0465 5.63849C96.3382 6.23177 96.484 6.92614 96.484 7.72159C96.484 8.51042 96.3382 9.19981 96.0465 9.78977C95.7582 10.3797 95.3538 10.8388 94.8335 11.1669C94.3164 11.495 93.7132 11.6591 93.0238 11.6591ZM93.0238 10.6051C93.5475 10.6051 93.9783 10.4709 94.3164 10.2024C94.6545 9.93395 94.9047 9.58097 95.0671 9.14347C95.2295 8.70597 95.3107 8.23201 95.3107 7.72159C95.3107 7.21117 95.2295 6.73556 95.0671 6.29474C94.9047 5.85393 94.6545 5.49763 94.3164 5.22585C93.9783 4.95407 93.5475 4.81818 93.0238 4.81818C92.5001 4.81818 92.0692 4.95407 91.7312 5.22585C91.3931 5.49763 91.1429 5.85393 90.9805 6.29474C90.8181 6.73556 90.7369 7.21117 90.7369 7.72159C90.7369 8.23201 90.8181 8.70597 90.9805 9.14347C91.1429 9.58097 91.3931 9.93395 91.7312 10.2024C92.0692 10.4709 92.5001 10.6051 93.0238 10.6051ZM99.4483 6.90625V11.5H98.275V3.86364H99.4086V5.05682H99.508C99.687 4.66903 99.9587 4.35748 100.323 4.12216C100.688 3.88352 101.159 3.7642 101.735 3.7642C102.252 3.7642 102.705 3.87027 103.093 4.08239C103.48 4.29119 103.782 4.60938 103.997 5.03693C104.213 5.46117 104.32 5.99811 104.32 6.64773V11.5H103.147V6.72727C103.147 6.12737 102.991 5.66004 102.68 5.32528C102.368 4.98722 101.941 4.81818 101.397 4.81818C101.023 4.81818 100.688 4.89938 100.393 5.06179C100.101 5.22419 99.8709 5.46117 99.7019 5.77273C99.5328 6.08428 99.4483 6.46212 99.4483 6.90625ZM113.723 3.86364V4.85795H109.766V3.86364H113.723ZM110.919 2.03409H112.092V9.3125C112.092 9.64394 112.14 9.89252 112.237 10.0582C112.336 10.2206 112.462 10.33 112.614 10.3864C112.77 10.4394 112.934 10.4659 113.107 10.4659C113.236 10.4659 113.342 10.4593 113.425 10.446C113.508 10.4295 113.574 10.4162 113.624 10.4062L113.862 11.4602C113.783 11.4901 113.672 11.5199 113.529 11.5497C113.387 11.5829 113.206 11.5994 112.987 11.5994C112.656 11.5994 112.331 11.5282 112.013 11.3857C111.698 11.2431 111.436 11.026 111.227 10.7344C111.022 10.4427 110.919 10.0748 110.919 9.63068V2.03409ZM116.825 6.90625V11.5H115.652V1.31818H116.825V5.05682H116.925C117.104 4.66241 117.372 4.34919 117.73 4.11719C118.091 3.88187 118.572 3.7642 119.172 3.7642C119.692 3.7642 120.148 3.86861 120.539 4.07741C120.93 4.28291 121.233 4.59943 121.449 5.02699C121.668 5.45123 121.777 5.99148 121.777 6.64773V11.5H120.604V6.72727C120.604 6.12074 120.446 5.65175 120.131 5.32031C119.82 4.98556 119.387 4.81818 118.834 4.81818C118.449 4.81818 118.105 4.89938 117.8 5.06179C117.498 5.22419 117.259 5.46117 117.084 5.77273C116.911 6.08428 116.825 6.46212 116.825 6.90625ZM127.125 11.6591C126.389 11.6591 125.755 11.4967 125.221 11.1719C124.691 10.8438 124.281 10.3864 123.993 9.79972C123.708 9.20975 123.566 8.52367 123.566 7.74148C123.566 6.95928 123.708 6.26989 123.993 5.6733C124.281 5.07339 124.682 4.60606 125.196 4.27131C125.713 3.93324 126.316 3.7642 127.006 3.7642C127.404 3.7642 127.796 3.83049 128.184 3.96307C128.572 4.09564 128.925 4.31108 129.243 4.60938C129.561 4.90436 129.815 5.29545 130.004 5.78267C130.193 6.26989 130.287 6.86979 130.287 7.58239V8.07955H124.401V7.06534H129.094C129.094 6.63447 129.008 6.25 128.835 5.91193C128.666 5.57386 128.424 5.30705 128.11 5.11151C127.798 4.91596 127.43 4.81818 127.006 4.81818C126.539 4.81818 126.134 4.93419 125.793 5.16619C125.455 5.39489 125.195 5.69318 125.012 6.06108C124.83 6.42898 124.739 6.82339 124.739 7.24432V7.92045C124.739 8.49716 124.838 8.98603 125.037 9.38707C125.239 9.7848 125.519 10.0881 125.877 10.2969C126.235 10.5024 126.651 10.6051 127.125 10.6051C127.433 10.6051 127.712 10.562 127.96 10.4759C128.212 10.3864 128.429 10.2538 128.612 10.0781C128.794 9.89915 128.935 9.67708 129.034 9.41193L130.168 9.73011C130.048 10.1146 129.848 10.4527 129.566 10.7443C129.285 11.0327 128.936 11.258 128.522 11.4205C128.108 11.5795 127.642 11.6591 127.125 11.6591ZM141.737 3.86364C141.677 3.35985 141.435 2.96875 141.011 2.69034C140.587 2.41193 140.066 2.27273 139.45 2.27273C138.999 2.27273 138.605 2.34564 138.267 2.49148C137.932 2.63731 137.67 2.83783 137.481 3.09304C137.295 3.34825 137.203 3.63826 137.203 3.96307C137.203 4.23485 137.267 4.46851 137.396 4.66406C137.529 4.8563 137.698 5.01705 137.904 5.14631C138.109 5.27225 138.325 5.37666 138.55 5.45952C138.775 5.53906 138.982 5.60369 139.171 5.65341L140.205 5.93182C140.471 6.00142 140.766 6.09754 141.09 6.22017C141.419 6.3428 141.732 6.51018 142.03 6.7223C142.332 6.93111 142.58 7.19957 142.776 7.5277C142.971 7.85582 143.069 8.25852 143.069 8.7358C143.069 9.28598 142.925 9.78314 142.637 10.2273C142.352 10.6714 141.934 11.0244 141.384 11.2862C140.837 11.5481 140.172 11.679 139.39 11.679C138.661 11.679 138.03 11.5613 137.496 11.326C136.966 11.0907 136.548 10.7625 136.243 10.3416C135.941 9.92069 135.771 9.43182 135.731 8.875H137.004C137.037 9.25947 137.166 9.57765 137.392 9.82955C137.62 10.0781 137.909 10.2637 138.257 10.3864C138.608 10.5057 138.986 10.5653 139.39 10.5653C139.861 10.5653 140.283 10.4891 140.658 10.3366C141.032 10.1809 141.329 9.96544 141.548 9.69034C141.767 9.41193 141.876 9.08712 141.876 8.71591C141.876 8.37784 141.781 8.10275 141.593 7.89062C141.404 7.6785 141.155 7.50616 140.847 7.37358C140.539 7.241 140.205 7.125 139.847 7.02557L138.595 6.66761C137.799 6.43892 137.169 6.11245 136.705 5.68821C136.241 5.26397 136.009 4.70881 136.009 4.02273C136.009 3.45265 136.164 2.95549 136.472 2.53125C136.783 2.10369 137.201 1.77225 137.725 1.53693C138.252 1.2983 138.84 1.17898 139.49 1.17898C140.146 1.17898 140.729 1.29664 141.24 1.53196C141.75 1.76397 142.154 2.08215 142.453 2.48651C142.754 2.89086 142.913 3.3499 142.93 3.86364H141.737ZM148.139 11.6591C147.403 11.6591 146.768 11.4967 146.235 11.1719C145.704 10.8438 145.295 10.3864 145.007 9.79972C144.722 9.20975 144.579 8.52367 144.579 7.74148C144.579 6.95928 144.722 6.26989 145.007 5.6733C145.295 5.07339 145.696 4.60606 146.21 4.27131C146.727 3.93324 147.33 3.7642 148.02 3.7642C148.417 3.7642 148.81 3.83049 149.198 3.96307C149.586 4.09564 149.939 4.31108 150.257 4.60938C150.575 4.90436 150.828 5.29545 151.017 5.78267C151.206 6.26989 151.301 6.86979 151.301 7.58239V8.07955H145.414V7.06534H150.108C150.108 6.63447 150.021 6.25 149.849 5.91193C149.68 5.57386 149.438 5.30705 149.123 5.11151C148.812 4.91596 148.444 4.81818 148.02 4.81818C147.552 4.81818 147.148 4.93419 146.806 5.16619C146.468 5.39489 146.208 5.69318 146.026 6.06108C145.844 6.42898 145.752 6.82339 145.752 7.24432V7.92045C145.752 8.49716 145.852 8.98603 146.051 9.38707C146.253 9.7848 146.533 10.0881 146.891 10.2969C147.249 10.5024 147.665 10.6051 148.139 10.6051C148.447 10.6051 148.725 10.562 148.974 10.4759C149.226 10.3864 149.443 10.2538 149.625 10.0781C149.808 9.89915 149.949 9.67708 150.048 9.41193L151.181 9.73011C151.062 10.1146 150.862 10.4527 150.58 10.7443C150.298 11.0327 149.95 11.258 149.536 11.4205C149.122 11.5795 148.656 11.6591 148.139 11.6591ZM154.259 1.31818V11.5H153.086V1.31818H154.259ZM159.61 11.6591C158.874 11.6591 158.239 11.4967 157.705 11.1719C157.175 10.8438 156.766 10.3864 156.477 9.79972C156.192 9.20975 156.05 8.52367 156.05 7.74148C156.05 6.95928 156.192 6.26989 156.477 5.6733C156.766 5.07339 157.167 4.60606 157.681 4.27131C158.198 3.93324 158.801 3.7642 159.49 3.7642C159.888 3.7642 160.281 3.83049 160.669 3.96307C161.056 4.09564 161.409 4.31108 161.727 4.60938C162.046 4.90436 162.299 5.29545 162.488 5.78267C162.677 6.26989 162.771 6.86979 162.771 7.58239V8.07955H156.885V7.06534H161.578C161.578 6.63447 161.492 6.25 161.32 5.91193C161.151 5.57386 160.909 5.30705 160.594 5.11151C160.282 4.91596 159.914 4.81818 159.49 4.81818C159.023 4.81818 158.619 4.93419 158.277 5.16619C157.939 5.39489 157.679 5.69318 157.497 6.06108C157.314 6.42898 157.223 6.82339 157.223 7.24432V7.92045C157.223 8.49716 157.323 8.98603 157.521 9.38707C157.724 9.7848 158.004 10.0881 158.362 10.2969C158.72 10.5024 159.136 10.6051 159.61 10.6051C159.918 10.6051 160.196 10.562 160.445 10.4759C160.697 10.3864 160.914 10.2538 161.096 10.0781C161.278 9.89915 161.419 9.67708 161.519 9.41193L162.652 9.73011C162.533 10.1146 162.332 10.4527 162.051 10.7443C161.769 11.0327 161.421 11.258 161.007 11.4205C160.592 11.5795 160.127 11.6591 159.61 11.6591ZM167.659 11.6591C166.943 11.6591 166.326 11.4901 165.809 11.152C165.292 10.8139 164.894 10.3482 164.616 9.75497C164.338 9.16169 164.198 8.4839 164.198 7.72159C164.198 6.94602 164.341 6.2616 164.626 5.66832C164.914 5.07173 165.315 4.60606 165.829 4.27131C166.346 3.93324 166.949 3.7642 167.639 3.7642C168.176 3.7642 168.66 3.86364 169.09 4.0625C169.521 4.26136 169.874 4.53977 170.149 4.89773C170.424 5.25568 170.595 5.6733 170.661 6.15057H169.488C169.399 5.80256 169.2 5.49432 168.892 5.22585C168.587 4.95407 168.176 4.81818 167.659 4.81818C167.201 4.81818 166.8 4.9375 166.455 5.17614C166.114 5.41146 165.847 5.74455 165.655 6.17543C165.466 6.60298 165.372 7.10511 165.372 7.68182C165.372 8.27178 165.464 8.78551 165.65 9.22301C165.839 9.66051 166.104 10.0002 166.445 10.2422C166.79 10.4841 167.195 10.6051 167.659 10.6051C167.963 10.6051 168.24 10.5521 168.489 10.446C168.737 10.34 168.948 10.1875 169.12 9.98864C169.293 9.78977 169.415 9.55114 169.488 9.27273H170.661C170.595 9.72348 170.431 10.1295 170.169 10.4908C169.911 10.8487 169.568 11.1338 169.14 11.3459C168.716 11.5547 168.222 11.6591 167.659 11.6591ZM175.698 3.86364V4.85795H171.74V3.86364H175.698ZM172.894 2.03409H174.067V9.3125C174.067 9.64394 174.115 9.89252 174.211 10.0582C174.311 10.2206 174.436 10.33 174.589 10.3864C174.745 10.4394 174.909 10.4659 175.081 10.4659C175.21 10.4659 175.316 10.4593 175.399 10.446C175.482 10.4295 175.548 10.4162 175.598 10.4062L175.837 11.4602C175.757 11.4901 175.646 11.5199 175.504 11.5497C175.361 11.5829 175.181 11.5994 174.962 11.5994C174.63 11.5994 174.306 11.5282 173.987 11.3857C173.673 11.2431 173.411 11.026 173.202 10.7344C172.996 10.4427 172.894 10.0748 172.894 9.63068V2.03409ZM180.582 11.6591C179.846 11.6591 179.212 11.4967 178.678 11.1719C178.148 10.8438 177.738 10.3864 177.45 9.79972C177.165 9.20975 177.023 8.52367 177.023 7.74148C177.023 6.95928 177.165 6.26989 177.45 5.6733C177.738 5.07339 178.14 4.60606 178.653 4.27131C179.17 3.93324 179.773 3.7642 180.463 3.7642C180.861 3.7642 181.253 3.83049 181.641 3.96307C182.029 4.09564 182.382 4.31108 182.7 4.60938C183.018 4.90436 183.272 5.29545 183.461 5.78267C183.65 6.26989 183.744 6.86979 183.744 7.58239V8.07955H177.858V7.06534H182.551C182.551 6.63447 182.465 6.25 182.292 5.91193C182.123 5.57386 181.881 5.30705 181.567 5.11151C181.255 4.91596 180.887 4.81818 180.463 4.81818C179.996 4.81818 179.591 4.93419 179.25 5.16619C178.912 5.39489 178.652 5.69318 178.469 6.06108C178.287 6.42898 178.196 6.82339 178.196 7.24432V7.92045C178.196 8.49716 178.295 8.98603 178.494 9.38707C178.696 9.7848 178.976 10.0881 179.334 10.2969C179.692 10.5024 180.108 10.6051 180.582 10.6051C180.89 10.6051 181.169 10.562 181.417 10.4759C181.669 10.3864 181.886 10.2538 182.069 10.0781C182.251 9.89915 182.392 9.67708 182.491 9.41193L183.625 9.73011C183.506 10.1146 183.305 10.4527 183.023 10.7443C182.742 11.0327 182.394 11.258 181.979 11.4205C181.565 11.5795 181.099 11.6591 180.582 11.6591ZM188.412 11.6591C187.776 11.6591 187.214 11.4983 186.727 11.1768C186.24 10.852 185.859 10.3946 185.584 9.80469C185.309 9.21141 185.171 8.51042 185.171 7.7017C185.171 6.89962 185.309 6.2036 185.584 5.61364C185.859 5.02367 186.242 4.56794 186.732 4.24645C187.223 3.92495 187.789 3.7642 188.432 3.7642C188.93 3.7642 189.322 3.84706 189.611 4.01278C189.902 4.17519 190.124 4.3608 190.277 4.5696C190.433 4.77509 190.554 4.94413 190.64 5.0767H190.739V1.31818H191.912V11.5H190.779V10.3267H190.64C190.554 10.4659 190.431 10.6416 190.272 10.8537C190.113 11.0625 189.886 11.2498 189.591 11.4155C189.296 11.5779 188.903 11.6591 188.412 11.6591ZM188.572 10.6051C189.042 10.6051 189.44 10.4825 189.765 10.2372C190.09 9.98864 190.336 9.6456 190.506 9.2081C190.675 8.76728 190.759 8.25852 190.759 7.68182C190.759 7.11174 190.676 6.61293 190.51 6.18537C190.345 5.7545 190.099 5.41974 189.775 5.18111C189.45 4.93916 189.049 4.81818 188.572 4.81818C188.074 4.81818 187.66 4.94579 187.329 5.20099C187.001 5.45289 186.754 5.79593 186.588 6.23011C186.425 6.66098 186.344 7.14489 186.344 7.68182C186.344 8.22538 186.427 8.71922 186.593 9.16335C186.762 9.60417 187.01 9.95549 187.339 10.2173C187.67 10.4759 188.081 10.6051 188.572 10.6051ZM198.162 11.5V3.86364H199.335V11.5H198.162ZM198.758 2.59091C198.53 2.59091 198.332 2.51302 198.167 2.35724C198.004 2.20147 197.923 2.0142 197.923 1.79545C197.923 1.5767 198.004 1.38944 198.167 1.23366C198.332 1.07789 198.53 1 198.758 1C198.987 1 199.183 1.07789 199.345 1.23366C199.511 1.38944 199.594 1.5767 199.594 1.79545C199.594 2.0142 199.511 2.20147 199.345 2.35724C199.183 2.51302 198.987 2.59091 198.758 2.59091ZM204.805 3.86364V4.85795H200.848V3.86364H204.805ZM202.001 2.03409H203.174V9.3125C203.174 9.64394 203.222 9.89252 203.319 10.0582C203.418 10.2206 203.544 10.33 203.696 10.3864C203.852 10.4394 204.016 10.4659 204.189 10.4659C204.318 10.4659 204.424 10.4593 204.507 10.446C204.59 10.4295 204.656 10.4162 204.706 10.4062L204.944 11.4602C204.865 11.4901 204.754 11.5199 204.611 11.5497C204.469 11.5829 204.288 11.5994 204.069 11.5994C203.738 11.5994 203.413 11.5282 203.095 11.3857C202.78 11.2431 202.518 11.026 202.309 10.7344C202.104 10.4427 202.001 10.0748 202.001 9.63068V2.03409ZM209.69 11.6591C208.954 11.6591 208.319 11.4967 207.786 11.1719C207.255 10.8438 206.846 10.3864 206.558 9.79972C206.272 9.20975 206.13 8.52367 206.13 7.74148C206.13 6.95928 206.272 6.26989 206.558 5.6733C206.846 5.07339 207.247 4.60606 207.761 4.27131C208.278 3.93324 208.881 3.7642 209.57 3.7642C209.968 3.7642 210.361 3.83049 210.749 3.96307C211.136 4.09564 211.489 4.31108 211.808 4.60938C212.126 4.90436 212.379 5.29545 212.568 5.78267C212.757 6.26989 212.852 6.86979 212.852 7.58239V8.07955H206.965V7.06534H211.658C211.658 6.63447 211.572 6.25 211.4 5.91193C211.231 5.57386 210.989 5.30705 210.674 5.11151C210.362 4.91596 209.995 4.81818 209.57 4.81818C209.103 4.81818 208.699 4.93419 208.357 5.16619C208.019 5.39489 207.759 5.69318 207.577 6.06108C207.394 6.42898 207.303 6.82339 207.303 7.24432V7.92045C207.303 8.49716 207.403 8.98603 207.602 9.38707C207.804 9.7848 208.084 10.0881 208.442 10.2969C208.8 10.5024 209.216 10.6051 209.69 10.6051C209.998 10.6051 210.276 10.562 210.525 10.4759C210.777 10.3864 210.994 10.2538 211.176 10.0781C211.358 9.89915 211.499 9.67708 211.599 9.41193L212.732 9.73011C212.613 10.1146 212.412 10.4527 212.131 10.7443C211.849 11.0327 211.501 11.258 211.087 11.4205C210.672 11.5795 210.207 11.6591 209.69 11.6591ZM214.636 11.5V3.86364H215.77V5.05682H215.869C216.028 4.64915 216.285 4.33262 216.64 4.10724C216.995 3.87855 217.42 3.7642 217.918 3.7642C218.421 3.7642 218.841 3.87855 219.175 4.10724C219.513 4.33262 219.777 4.64915 219.966 5.05682H220.045C220.241 4.66241 220.534 4.34919 220.925 4.11719C221.317 3.88187 221.786 3.7642 222.332 3.7642C223.015 3.7642 223.574 3.97798 224.008 4.40554C224.442 4.82978 224.659 5.491 224.659 6.3892V11.5H223.486V6.3892C223.486 5.82576 223.332 5.42306 223.023 5.18111C222.715 4.93916 222.352 4.81818 221.935 4.81818C221.398 4.81818 220.982 4.98059 220.687 5.3054C220.392 5.62689 220.244 6.03456 220.244 6.52841V11.5H219.051V6.26989C219.051 5.8357 218.91 5.48603 218.629 5.22088C218.347 4.95241 217.984 4.81818 217.54 4.81818C217.235 4.81818 216.95 4.89938 216.685 5.06179C216.423 5.22419 216.211 5.44957 216.048 5.73793C215.889 6.02296 215.81 6.35275 215.81 6.72727V11.5H214.636ZM232.213 5.57386L231.159 5.87216C231.093 5.6965 230.995 5.5258 230.866 5.36009C230.74 5.19105 230.568 5.05185 230.349 4.94247C230.13 4.8331 229.85 4.77841 229.509 4.77841C229.042 4.77841 228.652 4.88613 228.341 5.10156C228.032 5.31368 227.878 5.58381 227.878 5.91193C227.878 6.2036 227.984 6.43395 228.196 6.60298C228.408 6.77202 228.74 6.91288 229.191 7.02557L230.324 7.30398C231.007 7.4697 231.516 7.72325 231.85 8.06463C232.185 8.4027 232.353 8.83854 232.353 9.37216C232.353 9.80966 232.227 10.2008 231.975 10.5455C231.726 10.8902 231.378 11.1619 230.931 11.3608C230.483 11.5597 229.963 11.6591 229.37 11.6591C228.591 11.6591 227.946 11.4901 227.436 11.152C226.925 10.8139 226.602 10.3201 226.466 9.67045L227.58 9.39205C227.686 9.80303 227.886 10.1113 228.181 10.3168C228.48 10.5223 228.869 10.625 229.35 10.625C229.897 10.625 230.331 10.509 230.652 10.277C230.977 10.0417 231.14 9.75994 231.14 9.43182C231.14 9.16667 231.047 8.9446 230.861 8.76562C230.676 8.58333 230.391 8.44744 230.006 8.35795L228.733 8.05966C228.034 7.89394 227.52 7.63707 227.192 7.28906C226.867 6.93774 226.705 6.49858 226.705 5.97159C226.705 5.54072 226.826 5.15956 227.068 4.82812C227.313 4.49669 227.646 4.23651 228.067 4.04758C228.491 3.85866 228.972 3.7642 229.509 3.7642C230.265 3.7642 230.858 3.92992 231.289 4.26136C231.723 4.5928 232.031 5.0303 232.213 5.57386Z" fill="white"/>
</g>
<defs>
<filter id="filter0_d_5408_1007" x="0.835449" y="0.840912" width="235.517" height="18.8381" filterUnits="userSpaceOnUse" color-interpolation-filters="sRGB">
<feFlood flood-opacity="0" result="BackgroundImageFix"/>
<feColorMatrix in="SourceAlpha" type="matrix" values="0 0 0 0 0 0 0 0 0 0 0 0 0 0 0 0 0 0 127 0" result="hardAlpha"/>
<feOffset dy="4"/>
<feGaussianBlur stdDeviation="2"/>
<feComposite in2="hardAlpha" operator="out"/>
<feColorMatrix type="matrix" values="0 0 0 0 0 0 0 0 0 0 0 0 0 0 0 0 0 0 0.25 0"/>
<feBlend mode="normal" in2="BackgroundImageFix" result="effect1_dropShadow_5408_1007"/>
<feBlend mode="normal" in="SourceGraphic" in2="effect1_dropShadow_5408_1007" result="shape"/>
</filter>
</defs>
</svg>
